<?xml version="1.0" encoding="UTF-8" standalone="no"?>
<!DOCTYPE svg PUBLIC "-//W3C//DTD SVG 1.0//EN" "http://www.w3.org/TR/2001/REC-SVG-20010904/DTD/svg10.dtd">
<!-- Generato da Microsoft Visio 11.0, SVG Export, v1.0 accessing-EJBs.svg Pagina 1 -->
<svg xmlns="http://www.w3.org/2000/svg" xmlns:v="http://schemas.microsoft.com/visio/2003/SVGExtensions/" width="6.55543in"
		height="5.53181in" viewBox="0 0 471.991 398.29" xml:space="preserve" color-interpolation-filters="sRGB" class="st12">
	<v:documentProperties v:langID="1040" v:metric="true" v:viewMarkup="false">
		<v:userDefs>
			<v:ud v:nameU="MBSAAddinOutlineVisible" v:prompt="" v:val="VT0(1):26"/>
		</v:userDefs>
	</v:documentProperties>

	<style type="text/css">
	<![CDATA[
		.st1 {fill:#d9d9d9;stroke:none;stroke-linecap:round;stroke-linejoin:round;stroke-width:0.72}
		.st2 {fill:#ffffff;stroke:none;stroke-linecap:round;stroke-linejoin:round;stroke-width:0.72}
		.st3 {fill:#bfbfbf;stroke:#bfbfbf;stroke-linecap:round;stroke-linejoin:round;stroke-width:0.72}
		.st4 {fill:#ffffff;stroke:#000000;stroke-linecap:round;stroke-linejoin:round;stroke-width:0.72}
		.st5 {stroke:#000000;stroke-linecap:round;stroke-linejoin:round;stroke-width:0.72}
		.st6 {fill:#000000;stroke:#000000;stroke-linecap:round;stroke-linejoin:round;stroke-width:0.72}
		.st7 {fill:none;stroke:none;stroke-linecap:round;stroke-linejoin:round;stroke-width:0.72}
		.st8 {fill:#000000;font-family:Arial;font-size:0.666664em}
		.st9 {font-size:1em}
		.st10 {fill:#660033;stroke:#660033;stroke-linecap:round;stroke-linejoin:round;stroke-width:0.72}
		.st11 {stroke:#ffffff;stroke-linecap:round;stroke-linejoin:round;stroke-width:2.16}
		.st12 {fill:none;fill-rule:evenodd;font-size:12;overflow:visible;stroke-linecap:square;stroke-miterlimit:3}
	]]>
	</style>

	<g v:mID="0" v:index="1" v:groupContext="foregroundPage">
		<title>Pagina 1</title>
		<v:pageProperties v:drawingScale="0.0393701" v:pageScale="0.0393701" v:drawingUnits="24" v:shadowOffsetX="8.50394"
				v:shadowOffsetY="-8.50394"/>
		<g id="shape11-1" v:mID="11" v:groupContext="shape" transform="translate(167.964,-240.956)">
			<title>Foglio.11</title>
			<ellipse cx="29.7638" cy="369.944" rx="29.7638" ry="28.3465" class="st1"/>
		</g>
		<g id="shape139-3" v:mID="139" v:groupContext="shape" transform="translate(0.72,-0.72)">
			<title>Foglio.139</title>
			<rect x="0" y="1.44" width="470.551" height="396.85" class="st2"/>
		</g>
		<g id="shape10-5" v:mID="10" v:groupContext="shape" transform="translate(98.5153,-160.169)">
			<title>Foglio.10</title>
			<ellipse cx="21.2598" cy="369.944" rx="21.2598" ry="28.3465" class="st1"/>
		</g>
		<g id="shape2-7" v:mID="2" v:groupContext="shape" transform="translate(16.918,-168.673)">
			<title>Foglio.2</title>
			<rect x="0" y="357.795" width="40.4949" height="40.4949" class="st3"/>
		</g>
		<g id="shape3-9" v:mID="3" v:groupContext="shape" transform="translate(14.8932,-170.698)">
			<title>Foglio.3</title>
			<rect x="0" y="357.795" width="40.4949" height="40.4949" class="st4"/>
		</g>
		<g id="shape16-11" v:mID="16" v:groupContext="shape" transform="translate(91.4287,605.231) rotate(180)">
			<title>Foglio.16</title>
			<path d="M0 398.29 L36.04 398.29" class="st5"/>
		</g>
		<g id="shape17-14" v:mID="17" v:groupContext="shape" transform="translate(482.916,204.106) rotate(90)">
			<title>Foglio.17</title>
			<path d="M5.67 398.29 L0 398.29 L2.83 388.65 L5.67 398.29 Z" class="st6"/>
		</g>
		<g id="shape19-16" v:mID="19" v:groupContext="shape" transform="translate(411.744,-20.5625)">
			<title>Foglio.19</title>
			<rect x="0" y="39.1572" width="48.189" height="359.133" class="st3"/>
		</g>
		<g id="shape20-18" v:mID="20" v:groupContext="shape" transform="translate(408.909,-23.5553)">
			<title>Foglio.20</title>
			<rect x="0" y="39.1572" width="48.189" height="359.133" class="st4"/>
		</g>
		<g id="shape23-20" v:mID="23" v:groupContext="shape" transform="translate(821.89,51.5523) rotate(90)">
			<title>Foglio.23</title>
			<desc>One or more transactional resource managers</desc>
			<v:textBlock v:margins="rect(4,4,4,4)" v:tabSpace="42.5197"/>
			<v:textRect cx="85.9394" cy="390.304" width="171.88" height="15.9732"/>
			<rect x="0" y="382.317" width="171.879" height="15.9732" class="st7"/>
			<text x="4.12" y="392.7" class="st8" v:langID="1040"><v:paragraph v:horizAlign="1"/><v:tabList/>One or more transactional resource managers</text>		</g>
		<g id="shape138-23" v:mID="138" v:groupContext="shape" transform="translate(9.22394,-184.263)">
			<title>Foglio.138</title>
			<desc>Client</desc>
			<v:textBlock v:margins="rect(4,4,4,4)" v:tabSpace="42.5197"/>
			<v:textRect cx="19.8425" cy="391.204" width="39.69" height="14.1732"/>
			<rect x="0" y="384.117" width="39.685" height="14.1732" class="st7"/>
			<text x="9.62" y="393.6" class="st8" v:langID="1040"><v:paragraph v:horizAlign="1"/><v:tabList/>Client</text>		</g>
		<g id="shape1-26" v:mID="1" v:groupContext="shape" transform="translate(95.0995,-163.003)">
			<title>Foglio.1</title>
			<ellipse cx="21.2598" cy="369.944" rx="21.2598" ry="28.3465" class="st4"/>
		</g>
		<g id="shape14-28" v:mID="14" v:groupContext="shape" transform="translate(90.5924,-179.884)">
			<title>Foglio.14</title>
			<desc>JSP/ Servlet</desc>
			<v:textBlock v:margins="rect(4,4,4,4)" v:tabSpace="42.5197"/>
			<v:textRect cx="21.515" cy="386.824" width="43.03" height="22.9323"/>
			<rect x="0" y="375.358" width="43.0299" height="22.9323" class="st7"/>
			<text x="13.07" y="384.42" class="st8" v:langID="1040"><v:paragraph v:horizAlign="1"/><v:tabList/>JSP/<v:newlineChar/><tspan
						x="9.07" dy="1.2em" class="st9">Servlet</tspan></text>		</g>
		<g id="shape4-32" v:mID="4" v:groupContext="shape" transform="translate(167.964,-243.791)">
			<title>Foglio.4</title>
			<ellipse cx="28.3465" cy="369.944" rx="28.3465" ry="28.3465" class="st4"/>
		</g>
		<g id="shape5-34" v:mID="5" v:groupContext="shape" transform="translate(171.961,-275.553)">
			<title>Foglio.5</title>
			<desc>EJBean</desc>
			<v:textBlock v:margins="rect(4,4,4,4)" v:tabSpace="42.5197"/>
			<v:textRect cx="21.515" cy="386.824" width="43.03" height="22.9323"/>
			<rect x="0" y="375.358" width="43.0299" height="22.9323" class="st7"/>
			<text x="7.51" y="389.22" class="st8" v:langID="1040"><v:paragraph v:horizAlign="1"/><v:tabList/>EJBean</text>		</g>
		<g id="shape6-37" v:mID="6" v:groupContext="shape" transform="translate(-9.93237,-204.716) rotate(-30)">
			<title>Foglio.6</title>
			<ellipse cx="12.7542" cy="390.395" rx="12.7542" ry="7.89545" class="st10"/>
		</g>
		<g id="shape8-39" v:mID="8" v:groupContext="shape" transform="translate(-9.02308,-211.742) rotate(-29.3825)">
			<title>Foglio.8</title>
			<path d="M0 395.43 C1.36 396.33 2.83 397.55 4.97 398.06 C5.69 398.23 6.49 398.33 7.22 398.28 C8.82 398.17 10.08 397.39
						 11.27 396.66 C12.91 395.65 14.42 394.72 16.59 394.29 C18 394.01 19.7 393.93 21.08 394.12 C22.88 394.36 24.16
						 395.04 25.46 395.43" class="st11"/>
		</g>
		<g id="shape9-42" v:mID="9" v:groupContext="shape" transform="translate(179.756,-243.791)">
			<title>Foglio.9</title>
			<desc>1 a</desc>
			<v:textBlock v:margins="rect(4,4,4,4)" v:tabSpace="42.5197"/>
			<v:textRect cx="16.5543" cy="389.786" width="33.11" height="17.0079"/>
			<rect x="0" y="381.283" width="33.1087" height="17.0079" class="st7"/>
			<text x="10.99" y="392.19" class="st8" v:langID="1040"><v:paragraph v:horizAlign="1"/><v:tabList/>1 a</text>		</g>
		<g id="shape15-45" v:mID="15" v:groupContext="shape" transform="translate(169.381,-86.468)">
			<title>Foglio.15</title>
			<ellipse cx="29.7638" cy="369.944" rx="29.7638" ry="28.3465" class="st1"/>
		</g>
		<g id="shape18-47" v:mID="18" v:groupContext="shape" transform="translate(169.381,-89.3027)">
			<title>Foglio.18</title>
			<ellipse cx="28.3465" cy="369.944" rx="28.3465" ry="28.3465" class="st4"/>
		</g>
		<g id="shape28-49" v:mID="28" v:groupContext="shape" transform="translate(171.961,-119.775)">
			<title>Foglio.28</title>
			<desc>EJBean</desc>
			<v:textBlock v:margins="rect(4,4,4,4)" v:tabSpace="42.5197"/>
			<v:textRect cx="21.515" cy="386.824" width="43.03" height="22.9323"/>
			<rect x="0" y="375.358" width="43.0299" height="22.9323" class="st7"/>
			<text x="7.51" y="389.22" class="st8" v:langID="1040"><v:paragraph v:horizAlign="1"/><v:tabList/>EJBean</text>		</g>
		<g id="shape29-52" v:mID="29" v:groupContext="shape" transform="translate(-8.51505,-50.2276) rotate(-30)">
			<title>Foglio.29</title>
			<ellipse cx="12.7542" cy="390.395" rx="12.7542" ry="7.89545" class="st10"/>
		</g>
		<g id="shape30-54" v:mID="30" v:groupContext="shape" transform="translate(-7.60576,-57.2538) rotate(-29.3825)">
			<title>Foglio.30</title>
			<path d="M0 395.43 C1.36 396.33 2.83 397.55 4.97 398.06 C5.69 398.23 6.49 398.33 7.22 398.28 C8.82 398.17 10.08 397.39
						 11.27 396.66 C12.91 395.65 14.42 394.72 16.59 394.29 C18 394.01 19.7 393.93 21.08 394.12 C22.88 394.36 24.16
						 395.04 25.46 395.43" class="st11"/>
		</g>
		<g id="shape31-57" v:mID="31" v:groupContext="shape" transform="translate(181.174,-89.3027)">
			<title>Foglio.31</title>
			<desc>1 b</desc>
			<v:textBlock v:margins="rect(4,4,4,4)" v:tabSpace="42.5197"/>
			<v:textRect cx="16.5543" cy="389.786" width="33.11" height="17.0079"/>
			<rect x="0" y="381.283" width="33.1087" height="17.0079" class="st7"/>
			<text x="10.99" y="392.19" class="st8" v:langID="1040"><v:paragraph v:horizAlign="1"/><v:tabList/>1 b</text>		</g>
		<g id="shape32-60" v:mID="32" v:groupContext="shape" transform="translate(194.61,-189.252)">
			<title>Foglio.32</title>
			<ellipse cx="1.45512" cy="396.835" rx="1.45512" ry="1.45512" class="st6"/>
		</g>
		<g id="shape33-62" v:mID="33" v:groupContext="shape" transform="translate(194.818,-184.263)">
			<title>Foglio.33</title>
			<ellipse cx="1.45512" cy="396.835" rx="1.45512" ry="1.45512" class="st6"/>
		</g>
		<g id="shape34-64" v:mID="34" v:groupContext="shape" transform="translate(514.051,344.413) rotate(120.582)">
			<title>Foglio.34</title>
			<path d="M0 398.29 L67.23 398.29" class="st5"/>
		</g>
		<g id="shape35-67" v:mID="35" v:groupContext="shape" transform="translate(363.472,-196.887) rotate(30)">
			<title>Foglio.35</title>
			<path d="M5.67 398.29 L0 398.29 L2.83 388.65 L5.67 398.29 Z" class="st6"/>
		</g>
		<g id="shape36-69" v:mID="36" v:groupContext="shape" transform="translate(499.832,39.8147) rotate(55.1949) scale(-1,1)">
			<title>Foglio.36</title>
			<path d="M0 398.29 L62.48 398.29" class="st5"/>
		</g>
		<g id="shape37-72" v:mID="37" v:groupContext="shape" transform="translate(446.606,543.449) rotate(-45) scale(1,-1)">
			<title>Foglio.37</title>
			<path d="M5.67 398.29 L0 398.29 L2.83 388.65 L5.67 398.29 Z" class="st6"/>
		</g>
		<g id="shape38-74" v:mID="38" v:groupContext="shape" transform="translate(255.042,-279.224)">
			<title>Foglio.38</title>
			<ellipse cx="29.7638" cy="369.944" rx="29.7638" ry="28.3465" class="st1"/>
		</g>
		<g id="shape39-76" v:mID="39" v:groupContext="shape" transform="translate(255.042,-282.059)">
			<title>Foglio.39</title>
			<ellipse cx="28.3465" cy="369.944" rx="28.3465" ry="28.3465" class="st4"/>
		</g>
		<g id="shape40-78" v:mID="40" v:groupContext="shape" transform="translate(257,-312.531)">
			<title>Foglio.40</title>
			<desc>EJBean</desc>
			<v:textBlock v:margins="rect(4,4,4,4)" v:tabSpace="42.5197"/>
			<v:textRect cx="21.515" cy="386.824" width="43.03" height="22.9323"/>
			<rect x="0" y="375.358" width="43.0299" height="22.9323" class="st7"/>
			<text x="7.51" y="389.22" class="st8" v:langID="1040"><v:paragraph v:horizAlign="1"/><v:tabList/>EJBean</text>		</g>
		<g id="shape41-81" v:mID="41" v:groupContext="shape" transform="translate(77.1458,-242.984) rotate(-30)">
			<title>Foglio.41</title>
			<ellipse cx="12.7542" cy="390.395" rx="12.7542" ry="7.89545" class="st10"/>
		</g>
		<g id="shape42-83" v:mID="42" v:groupContext="shape" transform="translate(78.0551,-250.01) rotate(-29.3825)">
			<title>Foglio.42</title>
			<path d="M0 395.43 C1.36 396.33 2.83 397.55 4.97 398.06 C5.69 398.23 6.49 398.33 7.22 398.28 C8.82 398.17 10.08 397.39
						 11.27 396.66 C12.91 395.65 14.42 394.72 16.59 394.29 C18 394.01 19.7 393.93 21.08 394.12 C22.88 394.36 24.16
						 395.04 25.46 395.43" class="st11"/>
		</g>
		<g id="shape43-86" v:mID="43" v:groupContext="shape" transform="translate(266.834,-282.059)">
			<title>Foglio.43</title>
			<desc>2 a</desc>
			<v:textBlock v:margins="rect(4,4,4,4)" v:tabSpace="42.5197"/>
			<v:textRect cx="16.5543" cy="389.786" width="33.11" height="17.0079"/>
			<rect x="0" y="381.283" width="33.1087" height="17.0079" class="st7"/>
			<text x="10.99" y="392.19" class="st8" v:langID="1040"><v:paragraph v:horizAlign="1"/><v:tabList/>2 a</text>		</g>
		<g id="shape44-89" v:mID="44" v:groupContext="shape" transform="translate(256.46,-201.271)">
			<title>Foglio.44</title>
			<ellipse cx="29.7638" cy="369.944" rx="29.7638" ry="28.3465" class="st1"/>
		</g>
		<g id="shape45-91" v:mID="45" v:groupContext="shape" transform="translate(256.46,-204.106)">
			<title>Foglio.45</title>
			<ellipse cx="28.3465" cy="369.944" rx="28.3465" ry="28.3465" class="st4"/>
		</g>
		<g id="shape46-93" v:mID="46" v:groupContext="shape" transform="translate(258.673,-235.74)">
			<title>Foglio.46</title>
			<desc>EJBean</desc>
			<v:textBlock v:margins="rect(4,4,4,4)" v:tabSpace="42.5197"/>
			<v:textRect cx="21.515" cy="386.824" width="43.03" height="22.9323"/>
			<rect x="0" y="375.358" width="43.0299" height="22.9323" class="st7"/>
			<text x="7.51" y="389.22" class="st8" v:langID="1040"><v:paragraph v:horizAlign="1"/><v:tabList/>EJBean</text>		</g>
		<g id="shape47-96" v:mID="47" v:groupContext="shape" transform="translate(78.5631,-165.031) rotate(-30)">
			<title>Foglio.47</title>
			<ellipse cx="12.7542" cy="390.395" rx="12.7542" ry="7.89545" class="st10"/>
		</g>
		<g id="shape48-98" v:mID="48" v:groupContext="shape" transform="translate(79.4724,-172.057) rotate(-29.3825)">
			<title>Foglio.48</title>
			<path d="M0 395.43 C1.36 396.33 2.83 397.55 4.97 398.06 C5.69 398.23 6.49 398.33 7.22 398.28 C8.82 398.17 10.08 397.39
						 11.27 396.66 C12.91 395.65 14.42 394.72 16.59 394.29 C18 394.01 19.7 393.93 21.08 394.12 C22.88 394.36 24.16
						 395.04 25.46 395.43" class="st11"/>
		</g>
		<g id="shape49-101" v:mID="49" v:groupContext="shape" transform="translate(268.252,-204.106)">
			<title>Foglio.49</title>
			<desc>2 b</desc>
			<v:textBlock v:margins="rect(4,4,4,4)" v:tabSpace="42.5197"/>
			<v:textRect cx="16.5543" cy="389.786" width="33.11" height="17.0079"/>
			<rect x="0" y="381.283" width="33.1087" height="17.0079" class="st7"/>
			<text x="10.99" y="392.19" class="st8" v:langID="1040"><v:paragraph v:horizAlign="1"/><v:tabList/>2 b</text>		</g>
		<g id="shape50-104" v:mID="50" v:groupContext="shape" transform="translate(281.688,-272.345)">
			<title>Foglio.50</title>
			<ellipse cx="1.45512" cy="396.835" rx="1.45512" ry="1.45512" class="st6"/>
		</g>
		<g id="shape51-106" v:mID="51" v:groupContext="shape" transform="translate(281.896,-267.356)">
			<title>Foglio.51</title>
			<ellipse cx="1.45512" cy="396.835" rx="1.45512" ry="1.45512" class="st6"/>
		</g>
		<g id="shape52-108" v:mID="52" v:groupContext="shape" transform="translate(454.393,444.356) rotate(150)">
			<title>Foglio.52</title>
			<path d="M0 398.29 L36.04 398.29" class="st5"/>
		</g>
		<g id="shape53-111" v:mID="53" v:groupContext="shape" transform="translate(592.868,-98.7721) rotate(60)">
			<title>Foglio.53</title>
			<path d="M5.67 398.29 L0 398.29 L2.83 388.65 L5.67 398.29 Z" class="st6"/>
		</g>
		<g id="shape54-113" v:mID="54" v:groupContext="shape" transform="translate(454.567,-193.265) rotate(30) scale(-1,1)">
			<title>Foglio.54</title>
			<path d="M0 398.29 L36.04 398.29" class="st5"/>
		</g>
		<g id="shape55-116" v:mID="55" v:groupContext="shape" transform="translate(593.043,349.863) rotate(-60) scale(1,-1)">
			<title>Foglio.55</title>
			<path d="M5.67 398.29 L0 398.29 L2.83 388.65 L5.67 398.29 Z" class="st6"/>
		</g>
		<g id="shape56-118" v:mID="56" v:groupContext="shape" transform="translate(194.61,-194.392)">
			<title>Foglio.56</title>
			<ellipse cx="1.45512" cy="396.835" rx="1.45512" ry="1.45512" class="st6"/>
		</g>
		<g id="shape57-120" v:mID="57" v:groupContext="shape" transform="translate(255.664,-123.318)">
			<title>Foglio.57</title>
			<ellipse cx="29.7638" cy="369.944" rx="29.7638" ry="28.3465" class="st1"/>
		</g>
		<g id="shape58-122" v:mID="58" v:groupContext="shape" transform="translate(255.664,-126.153)">
			<title>Foglio.58</title>
			<ellipse cx="28.3465" cy="369.944" rx="28.3465" ry="28.3465" class="st4"/>
		</g>
		<g id="shape59-124" v:mID="59" v:groupContext="shape" transform="translate(258.163,-156.626)">
			<title>Foglio.59</title>
			<desc>EJBean</desc>
			<v:textBlock v:margins="rect(4,4,4,4)" v:tabSpace="42.5197"/>
			<v:textRect cx="21.515" cy="386.824" width="43.03" height="22.9323"/>
			<rect x="0" y="375.358" width="43.0299" height="22.9323" class="st7"/>
			<text x="7.51" y="389.22" class="st8" v:langID="1040"><v:paragraph v:horizAlign="1"/><v:tabList/>EJBean</text>		</g>
		<g id="shape60-127" v:mID="60" v:groupContext="shape" transform="translate(77.7672,-87.078) rotate(-30)">
			<title>Foglio.60</title>
			<ellipse cx="12.7542" cy="390.395" rx="12.7542" ry="7.89545" class="st10"/>
		</g>
		<g id="shape61-129" v:mID="61" v:groupContext="shape" transform="translate(78.6765,-94.1042) rotate(-29.3825)">
			<title>Foglio.61</title>
			<path d="M0 395.43 C1.36 396.33 2.83 397.55 4.97 398.06 C5.69 398.23 6.49 398.33 7.22 398.28 C8.82 398.17 10.08 397.39
						 11.27 396.66 C12.91 395.65 14.42 394.72 16.59 394.29 C18 394.01 19.7 393.93 21.08 394.12 C22.88 394.36 24.16
						 395.04 25.46 395.43" class="st11"/>
		</g>
		<g id="shape62-132" v:mID="62" v:groupContext="shape" transform="translate(267.456,-126.153)">
			<title>Foglio.62</title>
			<desc>2 c</desc>
			<v:textBlock v:margins="rect(4,4,4,4)" v:tabSpace="42.5197"/>
			<v:textRect cx="16.5543" cy="389.786" width="33.11" height="17.0079"/>
			<rect x="0" y="381.283" width="33.1087" height="17.0079" class="st7"/>
			<text x="11.22" y="392.19" class="st8" v:langID="1040"><v:paragraph v:horizAlign="1"/><v:tabList/>2 c</text>		</g>
		<g id="shape63-135" v:mID="63" v:groupContext="shape" transform="translate(257.081,-45.3657)">
			<title>Foglio.63</title>
			<ellipse cx="29.7638" cy="369.944" rx="29.7638" ry="28.3465" class="st1"/>
		</g>
		<g id="shape64-137" v:mID="64" v:groupContext="shape" transform="translate(257.081,-48.2003)">
			<title>Foglio.64</title>
			<ellipse cx="28.3465" cy="369.944" rx="28.3465" ry="28.3465" class="st4"/>
		</g>
		<g id="shape65-139" v:mID="65" v:groupContext="shape" transform="translate(259.835,-79.835)">
			<title>Foglio.65</title>
			<desc>EJBean</desc>
			<v:textBlock v:margins="rect(4,4,4,4)" v:tabSpace="42.5197"/>
			<v:textRect cx="21.515" cy="386.824" width="43.03" height="22.9323"/>
			<rect x="0" y="375.358" width="43.0299" height="22.9323" class="st7"/>
			<text x="7.51" y="389.22" class="st8" v:langID="1040"><v:paragraph v:horizAlign="1"/><v:tabList/>EJBean</text>		</g>
		<g id="shape66-142" v:mID="66" v:groupContext="shape" transform="translate(79.1845,-9.12524) rotate(-30)">
			<title>Foglio.66</title>
			<ellipse cx="12.7542" cy="390.395" rx="12.7542" ry="7.89545" class="st10"/>
		</g>
		<g id="shape67-144" v:mID="67" v:groupContext="shape" transform="translate(80.0938,-16.1515) rotate(-29.3825)">
			<title>Foglio.67</title>
			<path d="M0 395.43 C1.36 396.33 2.83 397.55 4.97 398.06 C5.69 398.23 6.49 398.33 7.22 398.28 C8.82 398.17 10.08 397.39
						 11.27 396.66 C12.91 395.65 14.42 394.72 16.59 394.29 C18 394.01 19.7 393.93 21.08 394.12 C22.88 394.36 24.16
						 395.04 25.46 395.43" class="st11"/>
		</g>
		<g id="shape68-147" v:mID="68" v:groupContext="shape" transform="translate(268.873,-48.2003)">
			<title>Foglio.68</title>
			<desc>2 d</desc>
			<v:textBlock v:margins="rect(4,4,4,4)" v:tabSpace="42.5197"/>
			<v:textRect cx="16.5543" cy="389.786" width="33.11" height="17.0079"/>
			<rect x="0" y="381.283" width="33.1087" height="17.0079" class="st7"/>
			<text x="10.99" y="392.19" class="st8" v:langID="1040"><v:paragraph v:horizAlign="1"/><v:tabList/>2 d</text>		</g>
		<g id="shape69-150" v:mID="69" v:groupContext="shape" transform="translate(282.309,-116.44)">
			<title>Foglio.69</title>
			<ellipse cx="1.45512" cy="396.835" rx="1.45512" ry="1.45512" class="st6"/>
		</g>
		<g id="shape70-152" v:mID="70" v:groupContext="shape" transform="translate(282.517,-111.451)">
			<title>Foglio.70</title>
			<ellipse cx="1.45512" cy="396.835" rx="1.45512" ry="1.45512" class="st6"/>
		</g>
		<g id="shape71-154" v:mID="71" v:groupContext="shape" transform="translate(455.014,600.262) rotate(150)">
			<title>Foglio.71</title>
			<path d="M0 398.29 L36.04 398.29" class="st5"/>
		</g>
		<g id="shape72-157" v:mID="72" v:groupContext="shape" transform="translate(593.49,57.1334) rotate(60)">
			<title>Foglio.72</title>
			<path d="M5.67 398.29 L0 398.29 L2.83 388.65 L5.67 398.29 Z" class="st6"/>
		</g>
		<g id="shape73-159" v:mID="73" v:groupContext="shape" transform="translate(455.189,-37.3592) rotate(30) scale(-1,1)">
			<title>Foglio.73</title>
			<path d="M0 398.29 L36.04 398.29" class="st5"/>
		</g>
		<g id="shape74-162" v:mID="74" v:groupContext="shape" transform="translate(593.664,505.769) rotate(-60) scale(1,-1)">
			<title>Foglio.74</title>
			<path d="M5.67 398.29 L0 398.29 L2.83 388.65 L5.67 398.29 Z" class="st6"/>
		</g>
		<g id="shape21-164" v:mID="21" v:groupContext="shape" transform="translate(400.405,-12.0586)">
			<title>Foglio.21</title>
			<rect x="0" y="37.7516" width="48.189" height="360.539" class="st3"/>
		</g>
		<g id="shape22-166" v:mID="22" v:groupContext="shape" transform="translate(397.57,-15.0631)">
			<title>Foglio.22</title>
			<rect x="0" y="37.7516" width="48.189" height="360.539" class="st4"/>
		</g>
		<g id="shape24-168" v:mID="24" v:groupContext="shape" transform="translate(810.551,76.3554) rotate(90)">
			<title>Foglio.24</title>
			<desc>One or more transactional resource managers</desc>
			<v:textBlock v:margins="rect(4,4,4,4)" v:tabSpace="42.5197"/>
			<v:textRect cx="85.9394" cy="390.304" width="171.88" height="15.9732"/>
			<rect x="0" y="382.317" width="171.879" height="15.9732" class="st7"/>
			<text x="4.12" y="392.7" class="st8" v:langID="1040"><v:paragraph v:horizAlign="1"/><v:tabList/>One or more transactional resource managers</text>		</g>
		<g id="shape25-171" v:mID="25" v:groupContext="shape" transform="translate(529.444,416.435) rotate(151.787)">
			<title>Foglio.25</title>
			<path d="M0 398.29 L34.2 398.29" class="st5"/>
		</g>
		<g id="shape27-174" v:mID="27" v:groupContext="shape" transform="translate(533.451,-241.134) rotate(28.7987) scale(-1,1)">
			<title>Foglio.27</title>
			<path d="M0 398.29 L34.44 398.29" class="st5"/>
		</g>
		<g id="shape76-177" v:mID="76" v:groupContext="shape" transform="translate(341.12,-321.46)">
			<title>Foglio.76</title>
			<ellipse cx="12.2304" cy="386.06" rx="12.2304" ry="12.2304" class="st4"/>
		</g>
		<g id="shape77-179" v:mID="77" v:groupContext="shape" transform="translate(341.362,-277.724)">
			<title>Foglio.77</title>
			<ellipse cx="12.2304" cy="386.06" rx="12.2304" ry="12.2304" class="st4"/>
		</g>
		<g id="shape26-181" v:mID="26" v:groupContext="shape" transform="translate(342.578,-222.165)">
			<title>Foglio.26</title>
			<ellipse cx="12.2304" cy="386.06" rx="12.2304" ry="12.2304" class="st4"/>
		</g>
		<g id="shape75-183" v:mID="75" v:groupContext="shape" transform="translate(342.578,-234.338) scale(-1,1)">
			<title>Foglio.75</title>
			<path d="M0 398.29 L29.49 398.29" class="st5"/>
		</g>
		<g id="shape78-186" v:mID="78" v:groupContext="shape" transform="translate(352.358,-307.74)">
			<title>Foglio.78</title>
			<ellipse cx="1.45512" cy="396.835" rx="1.45512" ry="1.45512" class="st6"/>
		</g>
		<g id="shape80-188" v:mID="80" v:groupContext="shape" transform="translate(352.358,-312.881)">
			<title>Foglio.80</title>
			<ellipse cx="1.45512" cy="396.835" rx="1.45512" ry="1.45512" class="st6"/>
		</g>
		<g id="shape79-190" v:mID="79" v:groupContext="shape" transform="translate(676.39,-131.29) rotate(60)">
			<title>Foglio.79</title>
			<path d="M5.67 398.29 L0 398.29 L2.83 388.65 L5.67 398.29 Z" class="st6"/>
		</g>
		<g id="shape81-192" v:mID="81" v:groupContext="shape" transform="translate(679.445,299.786) rotate(120)">
			<title>Foglio.81</title>
			<path d="M5.67 398.29 L0 398.29 L2.83 388.65 L5.67 398.29 Z" class="st6"/>
		</g>
		<g id="shape82-194" v:mID="82" v:groupContext="shape" transform="translate(177.528,413.956) rotate(28.2133) scale(1,-1)">
			<title>Foglio.82</title>
			<path d="M0 398.29 L34.2 398.29" class="st5"/>
		</g>
		<g id="shape83-197" v:mID="83" v:groupContext="shape" transform="translate(173.952,-243.613) rotate(-28.7987)">
			<title>Foglio.83</title>
			<path d="M0 398.29 L34.44 398.29" class="st5"/>
		</g>
		<g id="shape84-200" v:mID="84" v:groupContext="shape" transform="translate(731.514,161.303) rotate(90)">
			<title>Foglio.84</title>
			<path d="M5.67 398.29 L0 398.29 L2.83 388.65 L5.67 398.29 Z" class="st6"/>
		</g>
		<g id="shape85-202" v:mID="85" v:groupContext="shape" transform="translate(325.768,-246.059)">
			<title>Foglio.85</title>
			<desc>connection</desc>
			<v:textBlock v:margins="rect(4,4,4,4)" v:tabSpace="42.5197"/>
			<v:textRect cx="24.1806" cy="392.621" width="48.37" height="11.3386"/>
			<rect x="0" y="386.952" width="48.3612" height="11.3386" class="st7"/>
			<text x="4.83" y="395.02" class="st8" v:langID="1040"><v:paragraph v:horizAlign="1"/><v:tabList/>connection</text>		</g>
		<g id="shape86-205" v:mID="86" v:groupContext="shape" transform="translate(396.521,-234.72) scale(-1,1)">
			<title>Foglio.86</title>
			<path d="M0 398.29 L29.49 398.29" class="st5"/>
		</g>
		<g id="shape87-208" v:mID="87" v:groupContext="shape" transform="translate(321.799,-346.405)">
			<title>Foglio.87</title>
			<desc>connections</desc>
			<v:textBlock v:margins="rect(4,4,4,4)" v:tabSpace="42.5197"/>
			<v:textRect cx="26.547" cy="392.621" width="53.1" height="11.3386"/>
			<rect x="0" y="386.952" width="53.094" height="11.3386" class="st7"/>
			<text x="5.2" y="395.02" class="st8" v:langID="1040"><v:paragraph v:horizAlign="1"/><v:tabList/>connections</text>		</g>
		<g id="shape88-211" v:mID="88" v:groupContext="shape" transform="translate(341.927,-141.177)">
			<title>Foglio.88</title>
			<ellipse cx="12.2304" cy="386.06" rx="12.2304" ry="12.2304" class="st4"/>
		</g>
		<g id="shape89-213" v:mID="89" v:groupContext="shape" transform="translate(341.927,-153.35) scale(-1,1)">
			<title>Foglio.89</title>
			<path d="M0 398.29 L29.49 398.29" class="st5"/>
		</g>
		<g id="shape90-216" v:mID="90" v:groupContext="shape" transform="translate(730.863,242.291) rotate(90)">
			<title>Foglio.90</title>
			<path d="M5.67 398.29 L0 398.29 L2.83 388.65 L5.67 398.29 Z" class="st6"/>
		</g>
		<g id="shape91-218" v:mID="91" v:groupContext="shape" transform="translate(325.116,-165.071)">
			<title>Foglio.91</title>
			<desc>connection</desc>
			<v:textBlock v:margins="rect(4,4,4,4)" v:tabSpace="42.5197"/>
			<v:textRect cx="24.1806" cy="392.621" width="48.37" height="11.3386"/>
			<rect x="0" y="386.952" width="48.3612" height="11.3386" class="st7"/>
			<text x="4.83" y="395.02" class="st8" v:langID="1040"><v:paragraph v:horizAlign="1"/><v:tabList/>connection</text>		</g>
		<g id="shape92-221" v:mID="92" v:groupContext="shape" transform="translate(395.87,-153.732) scale(-1,1)">
			<title>Foglio.92</title>
			<path d="M0 398.29 L29.49 398.29" class="st5"/>
		</g>
		<g id="shape7-224" v:mID="7" v:groupContext="shape" transform="translate(342.824,-62.3735)">
			<title>Foglio.7</title>
			<ellipse cx="12.2304" cy="386.06" rx="12.2304" ry="12.2304" class="st4"/>
		</g>
		<g id="shape12-226" v:mID="12" v:groupContext="shape" transform="translate(342.824,-74.5464) scale(-1,1)">
			<title>Foglio.12</title>
			<path d="M0 398.29 L29.49 398.29" class="st5"/>
		</g>
		<g id="shape13-229" v:mID="13" v:groupContext="shape" transform="translate(731.76,321.094) rotate(90)">
			<title>Foglio.13</title>
			<path d="M5.67 398.29 L0 398.29 L2.83 388.65 L5.67 398.29 Z" class="st6"/>
		</g>
		<g id="shape93-231" v:mID="93" v:groupContext="shape" transform="translate(326.013,-86.2674)">
			<title>Foglio.93</title>
			<desc>connection</desc>
			<v:textBlock v:margins="rect(4,4,4,4)" v:tabSpace="42.5197"/>
			<v:textRect cx="24.1806" cy="392.621" width="48.37" height="11.3386"/>
			<rect x="0" y="386.952" width="48.3612" height="11.3386" class="st7"/>
			<text x="4.83" y="395.02" class="st8" v:langID="1040"><v:paragraph v:horizAlign="1"/><v:tabList/>connection</text>		</g>
		<g id="shape94-234" v:mID="94" v:groupContext="shape" transform="translate(396.766,-74.9288) scale(-1,1)">
			<title>Foglio.94</title>
			<path d="M0 398.29 L29.49 398.29" class="st5"/>
		</g>
		<g id="shape95-237" v:mID="95" v:groupContext="shape" transform="translate(503.284,265.484) rotate(90)">
			<title>Foglio.95</title>
			<ellipse cx="12.2304" cy="386.06" rx="12.2304" ry="12.2304" class="st4"/>
		</g>
		<g id="shape96-239" v:mID="96" v:groupContext="shape" transform="translate(515.457,265.484) rotate(90) scale(-1,1)">
			<title>Foglio.96</title>
			<path d="M0 398.29 L29.49 398.29" class="st5"/>
		</g>
		<g id="shape97-242" v:mID="97" v:groupContext="shape" transform="translate(119.817,654.42) rotate(180)">
			<title>Foglio.97</title>
			<path d="M5.67 398.29 L0 398.29 L2.83 388.65 L5.67 398.29 Z" class="st6"/>
		</g>
		<g id="shape98-244" v:mID="98" v:groupContext="shape" transform="translate(47.0774,-114.862)">
			<title>Foglio.98</title>
			<desc>connection</desc>
			<v:textBlock v:margins="rect(4,4,4,4)" v:tabSpace="42.5197"/>
			<v:textRect cx="24.1806" cy="392.621" width="48.37" height="11.3386"/>
			<rect x="0" y="386.952" width="48.3612" height="11.3386" class="st7"/>
			<text x="4.83" y="395.02" class="st8" v:langID="1040"><v:paragraph v:horizAlign="1"/><v:tabList/>connection</text>		</g>
		<g id="shape99-247" v:mID="99" v:groupContext="shape" transform="translate(515.839,377.728) rotate(90) scale(-1,1)">
			<title>Foglio.99</title>
			<path d="M0 398.29 L87.79 398.29" class="st5"/>
		</g>
		<g id="shape100-250" v:mID="100" v:groupContext="shape" transform="translate(397.57,-20.5625) scale(-1,1)">
			<title>Foglio.100</title>
			<path d="M0 398.29 L280.02 398.29" class="st5"/>
		</g>
		<g id="shape101-253" v:mID="101" v:groupContext="shape" transform="translate(584.313,330.951) rotate(90)">
			<title>Foglio.101</title>
			<ellipse cx="12.2304" cy="386.06" rx="12.2304" ry="12.2304" class="st4"/>
		</g>
		<g id="shape102-255" v:mID="102" v:groupContext="shape" transform="translate(596.288,334.591) rotate(-89.5172) scale(1,-1)">
			<title>Foglio.102</title>
			<path d="M0 398.29 L21.9 398.29" class="st5"/>
		</g>
		<g id="shape103-258" v:mID="103" v:groupContext="shape" transform="translate(200.846,719.888) rotate(180)">
			<title>Foglio.103</title>
			<path d="M5.67 398.29 L0 398.29 L2.83 388.65 L5.67 398.29 Z" class="st6"/>
		</g>
		<g id="shape104-260" v:mID="104" v:groupContext="shape" transform="translate(128.107,-49.3946)">
			<title>Foglio.104</title>
			<desc>connection</desc>
			<v:textBlock v:margins="rect(4,4,4,4)" v:tabSpace="42.5197"/>
			<v:textRect cx="24.1806" cy="392.621" width="48.37" height="11.3386"/>
			<rect x="0" y="386.952" width="48.3612" height="11.3386" class="st7"/>
			<text x="4.83" y="395.02" class="st8" v:langID="1040"><v:paragraph v:horizAlign="1"/><v:tabList/>connection</text>		</g>
		<g id="shape105-263" v:mID="105" v:groupContext="shape" transform="translate(596.499,363.555) rotate(90) scale(-1,1)">
			<title>Foglio.105</title>
			<path d="M0 398.29 L8.14 398.29" class="st5"/>
		</g>
		<g id="shape106-266" v:mID="106" v:groupContext="shape" transform="translate(397.57,-34.7357) scale(-1,1)">
			<title>Foglio.106</title>
			<path d="M0 398.29 L199.36 398.29" class="st5"/>
		</g>
		<g id="shape107-269" v:mID="107" v:groupContext="shape" transform="translate(-188.858,75.8429) rotate(-90)">
			<title>Foglio.107</title>
			<ellipse cx="12.2304" cy="386.06" rx="12.2304" ry="12.2304" class="st4"/>
		</g>
		<g id="shape108-271" v:mID="108" v:groupContext="shape"
				transform="translate(-200.832,72.2035) rotate(-89.5172) scale(-1,1)">
			<title>Foglio.108</title>
			<path d="M0 398.29 L21.9 398.29" class="st5"/>
		</g>
		<g id="shape109-274" v:mID="109" v:groupContext="shape" transform="translate(194.61,-313.093)">
			<title>Foglio.109</title>
			<path d="M5.67 398.29 L0 398.29 L2.83 388.65 L5.67 398.29 Z" class="st6"/>
		</g>
		<g id="shape110-276" v:mID="110" v:groupContext="shape" transform="translate(124.944,-329.539)">
			<title>Foglio.110</title>
			<desc>connection</desc>
			<v:textBlock v:margins="rect(4,4,4,4)" v:tabSpace="42.5197"/>
			<v:textRect cx="24.1806" cy="392.621" width="48.37" height="11.3386"/>
			<rect x="0" y="386.952" width="48.3612" height="11.3386" class="st7"/>
			<text x="4.83" y="395.02" class="st8" v:langID="1040"><v:paragraph v:horizAlign="1"/><v:tabList/>connection</text>		</g>
		<g id="shape111-279" v:mID="111" v:groupContext="shape" transform="translate(-201.043,29.0665) rotate(-90) scale(-1,1)">
			<title>Foglio.111</title>
			<path d="M0 398.29 L22.32 398.29" class="st5"/>
		</g>
		<g id="shape112-282" v:mID="112" v:groupContext="shape" transform="translate(197.247,427.357) scale(1,-1)">
			<title>Foglio.112</title>
			<path d="M0 398.29 L199.36 398.29" class="st5"/>
		</g>
	</g>
</svg>
