<?xml version="1.0" encoding="UTF-8" standalone="no"?>
<!DOCTYPE svg PUBLIC "-//W3C//DTD SVG 1.0//EN" "http://www.w3.org/TR/2001/REC-SVG-20010904/DTD/svg10.dtd">
<!-- Generato da Microsoft Visio 11.0, SVG Export, v1.0 JavaEEapplication_DTD.svg Pagina 1 -->
<svg xmlns="http://www.w3.org/2000/svg" xmlns:v="http://schemas.microsoft.com/visio/2003/SVGExtensions/" width="7.14598in"
		height="2.50031in" viewBox="0 0 514.511 180.023" xml:space="preserve" color-interpolation-filters="sRGB" class="st7">
	<v:documentProperties v:langID="1040" v:metric="true" v:viewMarkup="false">
		<v:userDefs>
			<v:ud v:nameU="MBSAAddinOutlineVisible" v:prompt="" v:val="VT0(1):26"/>
		</v:userDefs>
	</v:documentProperties>

	<style type="text/css">
	<![CDATA[
		.st1 {fill:#ffffff;stroke:none;stroke-linecap:round;stroke-linejoin:round;stroke-width:0.72}
		.st2 {fill:#bfbfbf;stroke:#bfbfbf;stroke-linecap:round;stroke-linejoin:round;stroke-width:0.72}
		.st3 {fill:#ffffff;stroke:#000000;stroke-linecap:round;stroke-linejoin:round;stroke-width:0.72}
		.st4 {fill:none;stroke:none;stroke-linecap:round;stroke-linejoin:round;stroke-width:0.72}
		.st5 {fill:#000000;font-family:Arial;font-size:0.666664em}
		.st6 {stroke:#000000;stroke-linecap:round;stroke-linejoin:round;stroke-width:0.72}
		.st7 {fill:none;fill-rule:evenodd;font-size:12;overflow:visible;stroke-linecap:square;stroke-miterlimit:3}
	]]>
	</style>

	<g v:mID="0" v:index="1" v:groupContext="foregroundPage">
		<title>Pagina 1</title>
		<v:pageProperties v:drawingScale="0.0393701" v:pageScale="0.0393701" v:drawingUnits="24" v:shadowOffsetX="8.50394"
				v:shadowOffsetY="-8.50394"/>
		<g id="shape17-1" v:mID="17" v:groupContext="shape" transform="translate(0.72,-0.72)">
			<title>Foglio.17</title>
			<rect x="0" y="1.44" width="513.071" height="178.583" class="st1"/>
		</g>
		<g id="shape1-3" v:mID="1" v:groupContext="shape" transform="translate(21.686,-101.539)">
			<title>Foglio.1</title>
			<rect x="0" y="161.125" width="69.7427" height="18.8976" class="st2"/>
		</g>
		<g id="shape4-5" v:mID="4" v:groupContext="shape" transform="translate(18.1328,-104.751)">
			<title>Foglio.4</title>
			<rect x="0" y="161.125" width="69.3339" height="18.8976" class="st3"/>
		</g>
		<g id="shape5-7" v:mID="5" v:groupContext="shape" transform="translate(18.1328,-105.224)">
			<title>Foglio.5</title>
			<desc>description*</desc>
			<v:textBlock v:margins="rect(4,4,4,4)" v:tabSpace="42.5197"/>
			<v:textRect cx="25.3093" cy="170.81" width="50.62" height="18.4252"/>
			<rect x="0" y="161.597" width="50.6187" height="18.4252" class="st4"/>
			<text x="4.41" y="173.21" class="st5" v:langID="1040"><v:paragraph v:horizAlign="1"/><v:tabList/>description*</text>		</g>
		<g id="shape6-10" v:mID="6" v:groupContext="shape" transform="translate(117.486,-100.5)">
			<title>Foglio.6</title>
			<rect x="0" y="161.125" width="78.4196" height="18.8976" class="st2"/>
		</g>
		<g id="shape7-12" v:mID="7" v:groupContext="shape" transform="translate(114.106,-103.712)">
			<title>Foglio.7</title>
			<rect x="0" y="161.125" width="77.7436" height="18.8976" class="st3"/>
		</g>
		<g id="shape8-14" v:mID="8" v:groupContext="shape" transform="translate(114.106,-104.185)">
			<title>Foglio.8</title>
			<desc>display-name*</desc>
			<v:textBlock v:margins="rect(4,4,4,4)" v:tabSpace="42.5197"/>
			<v:textRect cx="29.5613" cy="170.81" width="59.13" height="18.4252"/>
			<rect x="0" y="161.597" width="59.1226" height="18.4252" class="st4"/>
			<text x="4.22" y="173.21" class="st5" v:langID="1040"><v:paragraph v:horizAlign="1"/><v:tabList/>display-name*</text>		</g>
		<g id="shape9-17" v:mID="9" v:groupContext="shape" transform="translate(216.369,-101.35)">
			<title>Foglio.9</title>
			<rect x="0" y="161.125" width="30.9651" height="18.8976" class="st2"/>
		</g>
		<g id="shape10-19" v:mID="10" v:groupContext="shape" transform="translate(213.318,-104.563)">
			<title>Foglio.10</title>
			<rect x="0" y="161.125" width="31.1811" height="18.8976" class="st3"/>
		</g>
		<g id="shape11-21" v:mID="11" v:groupContext="shape" transform="translate(213.318,-105.035)">
			<title>Foglio.11</title>
			<desc>icon*</desc>
			<v:textBlock v:margins="rect(4,4,4,4)" v:tabSpace="42.5197"/>
			<v:textRect cx="13.2621" cy="170.81" width="26.53" height="18.4252"/>
			<rect x="0" y="161.597" width="26.5242" height="18.4252" class="st4"/>
			<text x="4.37" y="173.21" class="st5" v:langID="1040"><v:paragraph v:horizAlign="1"/><v:tabList/>icon*</text>		</g>
		<g id="shape19-24" v:mID="19" v:groupContext="shape" transform="translate(24.0833,-55.1452)">
			<title>Foglio.19</title>
			<rect x="0" y="161.125" width="61.676" height="18.8976" class="st2"/>
		</g>
		<g id="shape20-26" v:mID="20" v:groupContext="shape" transform="translate(17.7279,-58.3578)">
			<title>Foglio.20</title>
			<rect x="0" y="161.125" width="64.9606" height="18.8976" class="st3"/>
		</g>
		<g id="shape21-28" v:mID="21" v:groupContext="shape" transform="translate(17.7279,-58.8302)">
			<title>Foglio.21</title>
			<desc>small-icon?</desc>
			<v:textBlock v:margins="rect(4,4,4,4)" v:tabSpace="42.5197"/>
			<v:textRect cx="26.2205" cy="170.81" width="52.45" height="18.4252"/>
			<rect x="0" y="161.597" width="52.4409" height="18.4252" class="st4"/>
			<text x="5.99" y="173.21" class="st5" v:langID="1040"><v:paragraph v:horizAlign="1"/><v:tabList/>small-icon?</text>		</g>
		<g id="shape22-31" v:mID="22" v:groupContext="shape" transform="translate(97.7841,285.625) scale(1,-1)">
			<title>Foglio.22</title>
			<rect x="0" y="161.125" width="61.676" height="18.8976" class="st2"/>
		</g>
		<g id="shape23-33" v:mID="23" v:groupContext="shape" transform="translate(91.4287,282.79) scale(1,-1)">
			<title>Foglio.23</title>
			<rect x="0" y="161.125" width="64.9606" height="18.8976" class="st3"/>
		</g>
		<g id="shape24-35" v:mID="24" v:groupContext="shape" transform="translate(142.452,-58.3578) scale(-1,1)">
			<title>Foglio.24</title>
			<desc>large-icon?</desc>
			<v:textBlock v:margins="rect(4,4,4,4)" v:tabSpace="42.5197"/>
			<v:textRect cx="25.5118" cy="170.81" width="51.03" height="18.4252"/>
			<rect x="0" y="161.597" width="51.0236" height="18.4252" class="st4"/>
			<text x="-45.3" y="173.21" transform="scale(-1,1)" class="st5" v:langID="1040"><v:paragraph v:horizAlign="1"/><v:tabList/>large-icon?</text>		</g>
		<g id="shape143-38" v:mID="143" v:groupContext="shape" transform="translate(275.681,-100.736)">
			<title>Foglio.143</title>
			<rect x="0" y="161.125" width="65.7638" height="18.8976" class="st2"/>
		</g>
		<g id="shape144-40" v:mID="144" v:groupContext="shape" transform="translate(272.846,-103.948)">
			<title>Foglio.144</title>
			<rect x="0" y="161.125" width="65.1969" height="18.8976" class="st3"/>
		</g>
		<g id="shape145-42" v:mID="145" v:groupContext="shape" transform="translate(272.846,-104.421)">
			<title>Foglio.145</title>
			<desc>module+</desc>
			<v:textBlock v:margins="rect(4,4,4,4)" v:tabSpace="42.5197"/>
			<v:textRect cx="22.7582" cy="170.81" width="45.52" height="18.4252"/>
			<rect x="0" y="161.597" width="45.5163" height="18.4252" class="st4"/>
			<text x="7.3" y="173.21" class="st5" v:langID="1040"><v:paragraph v:horizAlign="1"/><v:tabList/>module+</text>		</g>
		<g id="shape146-45" v:mID="146" v:groupContext="shape" transform="translate(168.499,-55.0507)">
			<title>Foglio.146</title>
			<rect x="0" y="161.125" width="139.78" height="18.8976" class="st2"/>
		</g>
		<g id="shape147-47" v:mID="147" v:groupContext="shape" transform="translate(163.712,-57.8854)">
			<title>Foglio.147</title>
			<rect x="0" y="161.125" width="141.318" height="18.8976" class="st3"/>
		</g>
		<g id="shape148-49" v:mID="148" v:groupContext="shape" transform="translate(163.712,-58.3578)">
			<title>Foglio.148</title>
			<desc>connector | ejb | java | web</desc>
			<v:textBlock v:margins="rect(4,4,4,4)" v:tabSpace="42.5197"/>
			<v:textRect cx="51.7323" cy="170.81" width="103.47" height="18.4252"/>
			<rect x="0" y="161.597" width="103.465" height="18.4252" class="st4"/>
			<text x="4.37" y="173.21" class="st5" v:langID="1040"><v:paragraph v:horizAlign="1"/><v:tabList/>connector | ejb | java | web</text>		</g>
		<g id="shape159-52" v:mID="159" v:groupContext="shape" transform="translate(55.4977,-9.22394)">
			<title>Foglio.159</title>
			<rect x="0" y="161.125" width="52.9389" height="18.8976" class="st2"/>
		</g>
		<g id="shape160-54" v:mID="160" v:groupContext="shape" transform="translate(53.2158,-12.4365)">
			<title>Foglio.160</title>
			<rect x="0" y="161.125" width="52.4825" height="18.8976" class="st3"/>
		</g>
		<g id="shape161-56" v:mID="161" v:groupContext="shape" transform="translate(53.2158,-12.909)">
			<title>Foglio.161</title>
			<desc>web-uri</desc>
			<v:textBlock v:margins="rect(4,4,4,4)" v:tabSpace="42.5197"/>
			<v:textRect cx="18.3978" cy="170.81" width="36.8" height="18.4252"/>
			<rect x="0" y="161.597" width="36.7955" height="18.4252" class="st4"/>
			<text x="5.28" y="173.21" class="st5" v:langID="1040"><v:paragraph v:horizAlign="1"/><v:tabList/>web-uri</text>		</g>
		<g id="shape162-59" v:mID="162" v:groupContext="shape" transform="translate(127.631,-9.22394)">
			<title>Foglio.162</title>
			<rect x="0" y="161.125" width="66.5264" height="18.8976" class="st2"/>
		</g>
		<g id="shape163-61" v:mID="163" v:groupContext="shape" transform="translate(124.763,-12.4365)">
			<title>Foglio.163</title>
			<rect x="0" y="161.125" width="65.9529" height="18.8976" class="st3"/>
		</g>
		<g id="shape164-63" v:mID="164" v:groupContext="shape" transform="translate(124.763,-12.909)">
			<title>Foglio.164</title>
			<desc>context-root</desc>
			<v:textBlock v:margins="rect(4,4,4,4)" v:tabSpace="42.5197"/>
			<v:textRect cx="25.4844" cy="170.81" width="50.97" height="18.4252"/>
			<rect x="0" y="161.597" width="50.9687" height="18.4252" class="st4"/>
			<text x="4.36" y="173.21" class="st5" v:langID="1040"><v:paragraph v:horizAlign="1"/><v:tabList/>context-root</text>		</g>
		<g id="shape165-66" v:mID="165" v:groupContext="shape" transform="translate(317.635,285.53) scale(1,-1)">
			<title>Foglio.165</title>
			<rect x="0" y="161.125" width="37.4162" height="18.8976" class="st2"/>
		</g>
		<g id="shape166-68" v:mID="166" v:groupContext="shape" transform="translate(313.948,282.695) scale(1,-1)">
			<title>Foglio.166</title>
			<rect x="0" y="161.125" width="37.6772" height="18.8976" class="st3"/>
		</g>
		<g id="shape167-70" v:mID="167" v:groupContext="shape" transform="translate(342.295,-58.4523) scale(-1,1)">
			<title>Foglio.167</title>
			<desc>alt-d?</desc>
			<v:textBlock v:margins="rect(4,4,4,4)" v:tabSpace="42.5197"/>
			<v:textRect cx="14.1732" cy="170.81" width="28.35" height="18.4252"/>
			<rect x="0" y="161.597" width="28.3465" height="18.4252" class="st4"/>
			<text x="-24.18" y="173.21" transform="scale(-1,1)" class="st5" v:langID="1040"><v:paragraph v:horizAlign="1"/><v:tabList/>alt-d?</text>		</g>
		<g id="shape168-73" v:mID="168" v:groupContext="shape" transform="translate(365.541,-100.5)">
			<title>Foglio.168</title>
			<rect x="0" y="161.125" width="77.5458" height="18.8976" class="st2"/>
		</g>
		<g id="shape169-75" v:mID="169" v:groupContext="shape" transform="translate(362.137,-103.712)">
			<title>Foglio.169</title>
			<rect x="0" y="161.125" width="78.2824" height="18.8976" class="st3"/>
		</g>
		<g id="shape170-77" v:mID="170" v:groupContext="shape" transform="translate(362.137,-104.185)">
			<title>Foglio.170</title>
			<desc>security-role*</desc>
			<v:textBlock v:margins="rect(4,4,4,4)" v:tabSpace="42.5197"/>
			<v:textRect cx="28.4274" cy="170.81" width="56.86" height="18.4252"/>
			<rect x="0" y="161.597" width="56.8549" height="18.4252" class="st4"/>
			<text x="5.09" y="173.21" class="st5" v:langID="1040"><v:paragraph v:horizAlign="1"/><v:tabList/>security-role*</text>		</g>
		<g id="shape171-80" v:mID="171" v:groupContext="shape" transform="translate(366.419,-55.0507)">
			<title>Foglio.171</title>
			<rect x="0" y="161.125" width="62.3324" height="18.8976" class="st2"/>
		</g>
		<g id="shape172-82" v:mID="172" v:groupContext="shape" transform="translate(362.738,-57.8854)">
			<title>Foglio.172</title>
			<rect x="0" y="161.125" width="63.018" height="18.8976" class="st3"/>
		</g>
		<g id="shape173-84" v:mID="173" v:groupContext="shape" transform="translate(362.738,-58.3578)">
			<title>Foglio.173</title>
			<desc>description*</desc>
			<v:textBlock v:margins="rect(4,4,4,4)" v:tabSpace="42.5197"/>
			<v:textRect cx="25.3093" cy="170.81" width="50.62" height="18.4252"/>
			<rect x="0" y="161.597" width="50.6187" height="18.4252" class="st4"/>
			<text x="4.41" y="173.21" class="st5" v:langID="1040"><v:paragraph v:horizAlign="1"/><v:tabList/>description*</text>		</g>
		<g id="shape179-87" v:mID="179" v:groupContext="shape" transform="translate(437.285,-55.0507)">
			<title>Foglio.179</title>
			<rect x="0" y="161.125" width="62.3324" height="18.8976" class="st2"/>
		</g>
		<g id="shape180-89" v:mID="180" v:groupContext="shape" transform="translate(433.604,-57.8854)">
			<title>Foglio.180</title>
			<rect x="0" y="161.125" width="63.018" height="18.8976" class="st3"/>
		</g>
		<g id="shape181-91" v:mID="181" v:groupContext="shape" transform="translate(433.568,-58.3578)">
			<title>Foglio.181</title>
			<desc>role-name</desc>
			<v:textBlock v:margins="rect(4,4,4,4)" v:tabSpace="42.5197"/>
			<v:textRect cx="22.3949" cy="170.81" width="44.79" height="18.4252"/>
			<rect x="0" y="161.597" width="44.7899" height="18.4252" class="st4"/>
			<text x="4.39" y="173.21" class="st5" v:langID="1040"><v:paragraph v:horizAlign="1"/><v:tabList/>role-name</text>		</g>
		<g id="shape594-94" v:mID="594" v:groupContext="shape" transform="translate(202.901,-146.704)">
			<title>Foglio.594</title>
			<rect x="0" y="161.125" width="69.7427" height="18.8976" class="st2"/>
		</g>
		<g id="shape595-96" v:mID="595" v:groupContext="shape" transform="translate(199.348,-149.917)">
			<title>Foglio.595</title>
			<rect x="0" y="161.125" width="69.3339" height="18.8976" class="st3"/>
		</g>
		<g id="shape596-98" v:mID="596" v:groupContext="shape" transform="translate(199.348,-150.389)">
			<title>Foglio.596</title>
			<desc>application</desc>
			<v:textBlock v:margins="rect(4,4,4,4)" v:tabSpace="42.5197"/>
			<v:textRect cx="25.3093" cy="170.81" width="50.62" height="18.4252"/>
			<rect x="0" y="161.597" width="50.6187" height="18.4252" class="st4"/>
			<text x="6.18" y="173.21" class="st5" v:langID="1040"><v:paragraph v:horizAlign="1"/><v:tabList/>application</text>		</g>
		<g id="shape597-101" v:mID="597" v:groupContext="shape" transform="translate(54.6431,43.2397) rotate(-90)">
			<title>Foglio.597</title>
			<path d="M0 180.02 L13.13 180.02" class="st6"/>
		</g>
		<g id="shape2-104" v:mID="2" v:groupContext="shape" transform="translate(400.405,223.262) rotate(180)">
			<title>Foglio.2</title>
			<path d="M0 180.02 L347.24 180.02" class="st6"/>
		</g>
		<g id="shape3-107" v:mID="3" v:groupContext="shape" transform="translate(-126.862,56.3735) rotate(-90)">
			<title>Foglio.3</title>
			<path d="M0 180.02 L13.13 180.02" class="st6"/>
		</g>
		<g id="shape16-110" v:mID="16" v:groupContext="shape" transform="translate(50.3036,88.972) rotate(-90)">
			<title>Foglio.16</title>
			<path d="M0 180.02 L13.13 180.02" class="st6"/>
		</g>
		<g id="shape12-113" v:mID="12" v:groupContext="shape" transform="translate(229.951,268.994) rotate(-179.88)">
			<title>Foglio.12</title>
			<path d="M0 180.02 L181.16 180.02" class="st6"/>
		</g>
		<g id="shape13-116" v:mID="13" v:groupContext="shape" transform="translate(-130.859,101.728) rotate(-90)">
			<title>Foglio.13</title>
			<path d="M0 180.02 L13.13 180.02" class="st6"/>
		</g>
		<g id="shape14-119" v:mID="14" v:groupContext="shape" transform="translate(-55.0507,102.2) rotate(-90)">
			<title>Foglio.14</title>
			<path d="M0 180.02 L13.13 180.02" class="st6"/>
		</g>
		<g id="shape15-122" v:mID="15" v:groupContext="shape" transform="translate(126.584,88.972) rotate(-90)">
			<title>Foglio.15</title>
			<path d="M0 180.02 L13.13 180.02" class="st6"/>
		</g>
		<g id="shape18-125" v:mID="18" v:groupContext="shape" transform="translate(75.8154,101.728) rotate(-90)">
			<title>Foglio.18</title>
			<path d="M0 180.02 L13.13 180.02" class="st6"/>
		</g>
		<g id="shape25-128" v:mID="25" v:groupContext="shape" transform="translate(155.186,102.2) rotate(-90)">
			<title>Foglio.25</title>
			<path d="M0 180.02 L13.13 180.02" class="st6"/>
		</g>
		<g id="shape26-131" v:mID="26" v:groupContext="shape" transform="translate(335.257,268.617) rotate(180)">
			<title>Foglio.26</title>
			<path d="M0 180.02 L79.67 180.02" class="st6"/>
		</g>
		<g id="shape27-134" v:mID="27" v:groupContext="shape" transform="translate(50.3036,135.744) rotate(-90)">
			<title>Foglio.27</title>
			<path d="M0 180.02 L13.13 180.02" class="st6"/>
		</g>
		<g id="shape28-137" v:mID="28" v:groupContext="shape" transform="translate(230.326,315.388) rotate(180)">
			<title>Foglio.28</title>
			<path d="M0 180.02 L149.98 180.02" class="st6"/>
		</g>
		<g id="shape29-140" v:mID="29" v:groupContext="shape" transform="translate(-99.6775,148.5) rotate(-90)">
			<title>Foglio.29</title>
			<path d="M0 180.02 L13.13 180.02" class="st6"/>
		</g>
		<g id="shape30-143" v:mID="30" v:groupContext="shape" transform="translate(-23.8696,149.539) rotate(-90)">
			<title>Foglio.30</title>
			<path d="M0 180.02 L13.13 180.02" class="st6"/>
		</g>
		<g id="shape31-146" v:mID="31" v:groupContext="shape" transform="translate(221.358,89.5389) rotate(-90)">
			<title>Foglio.31</title>
			<path d="M0 180.02 L13.13 180.02" class="st6"/>
		</g>
		<g id="shape32-149" v:mID="32" v:groupContext="shape" transform="translate(462.698,269.184) rotate(180)">
			<title>Foglio.32</title>
			<path d="M0 180.02 L76.49 180.02" class="st6"/>
		</g>
		<g id="shape33-152" v:mID="33" v:groupContext="shape" transform="translate(206.185,102.295) rotate(-90)">
			<title>Foglio.33</title>
			<path d="M0 180.02 L13.13 180.02" class="st6"/>
		</g>
		<g id="shape34-155" v:mID="34" v:groupContext="shape" transform="translate(282.745,102.767) rotate(-90)">
			<title>Foglio.34</title>
			<path d="M0 180.02 L13.13 180.02" class="st6"/>
		</g>
		<g id="shape35-158" v:mID="35" v:groupContext="shape" transform="translate(124.004,57.1767) rotate(-90)">
			<title>Foglio.35</title>
			<path d="M0 180.02 L13.13 180.02" class="st6"/>
		</g>
		<g id="shape36-161" v:mID="36" v:groupContext="shape" transform="translate(50.3036,56.3735) rotate(-90)">
			<title>Foglio.36</title>
			<path d="M0 180.02 L13.13 180.02" class="st6"/>
		</g>
		<g id="shape37-164" v:mID="37" v:groupContext="shape" transform="translate(-25.017,56.3735) rotate(-90)">
			<title>Foglio.37</title>
			<path d="M0 180.02 L13.13 180.02" class="st6"/>
		</g>
		<g id="shape38-167" v:mID="38" v:groupContext="shape" transform="translate(220.382,56.3735) rotate(-90)">
			<title>Foglio.38</title>
			<path d="M0 180.02 L13.13 180.02" class="st6"/>
		</g>
	</g>
</svg>
