<?xml version="1.0" encoding="utf-8"?>
<svg viewBox="0 0 300 62" xmlns="http://www.w3.org/2000/svg" xmlns:bx="https://boxy-svg.com">
  <g transform="matrix(0.1, 0, 0, -0.096719, -2.788321, 49.157616)" fill="#000000" stroke="none" style="">
    <text transform="matrix(1.037069, 0, 0, -1.437213, -152.163773, 1023.9245)" style="font-family: &quot;Roboto Slab&quot;; font-size: 57.5516px; line-height: 55.6633px; white-space: pre;" x="748.021" y="436.127">Web Client</text>
    <text transform="matrix(1.03707, 0, 0, -1.43721, 1089.444336, 1059.893555)" style="font-family: &quot;Courier Prime&quot;; font-size: 57.5517px; line-height: 69.062px; white-space: pre;" x="748.021" y="436.127">Web Server</text>
    <rect x="623.58" y="-338.728" width="245.187" height="255.873" style="fill: none; stroke: rgb(0, 0, 0); paint-order: stroke; stroke-width: 10px;" transform="matrix(1, 0, 0, -1, 0, 0)"/>
    <rect x="1787.619" y="-395.61" width="436.777" height="354.287" rx="9.073" ry="9.073" style="stroke-width: 10px; fill: none; stroke: rgb(0, 0, 0);" transform="matrix(1, 0, 0, -1, 0, 0)"/>
    <rect x="1790.414" y="-281.984" width="268.517" height="130.612" style="fill: none; stroke: rgb(0, 0, 0); paint-order: stroke; stroke-width: 10px;" transform="matrix(1, 0, 0, -1, 0, 0)"/>
    <text transform="matrix(1.03707, 0, 0, -1.43721, 350.700867, 661.298645)" style="font-family: &quot;Courier Prime&quot;; font-size: 57.5517px; line-height: 69.062px; white-space: pre;" x="748.021" y="436.127">Authentication data</text>
    <text x="988.089" y="64.615" style="white-space: pre; fill: rgb(51, 51, 51); font-family: &quot;Roboto Slab&quot;; font-size: 28px;">
</text>
    <text transform="matrix(1.03707, 0, 0, -1.43721, 1019.875488, 826.020874)" style="font-family: &quot;Courier Prime&quot;; font-size: 50.3577px; line-height: 69.062px; white-space: pre;" x="748.021" y="436.127">credential</text>
    <text x="1462.962" y="274.363" style="white-space: pre; fill: rgb(51, 51, 51); font-family: &quot;Roboto Slab&quot;; font-size: 28px;">
</text>
    <text transform="matrix(1.03707, 0, 0, -1.43721, 480.928955, 950.987244)" style="font-family: &quot;Courier Prime&quot;; font-size: 57.5517px; line-height: 69.062px; white-space: pre;" x="748.021" y="436.127">Form</text>
    <text x="1231.882" y="401.466" style="white-space: pre; fill: rgb(51, 51, 51); font-family: &quot;Roboto Slab&quot;; font-size: 28px;">
</text>
    <text style="fill: rgb(51, 51, 51); font-family: &quot;Courier Prime&quot;; font-size: 28px; white-space: pre;" x="1386.02" y="-108.797">
</text>
    <line style="stroke: rgb(0, 0, 0); paint-order: stroke; stroke-width: 10.1668px;" x1="868.767" y1="109.657" x2="1795.62" y2="109.657"/>
    <line style="stroke: rgb(0, 0, 0); stroke-width: 10.1668px;" x1="1787.619" y1="303.861" x2="868.767" y2="311.068"/>
    <line style="stroke: rgb(0, 0, 0);" x1="1924.7217868409787" y1="190.84958442603516" x2="1926.047701964756" y2="178.89458035375873"/>
    <path d="M 1804.189 540.324 L 1843.845 610.05 L 1764.533 610.05 L 1804.189 540.324 Z" style="stroke-width: 10.1679px;" transform="matrix(0.847839, 0.530254, 0.505197, -0.86351, -75.859428, -337.194291)" bx:shape="triangle 1764.533 540.324 79.312 69.726 0.5 0 1@a569df3e"/>
    <path d="M -1725.114 -540.255 L -1685.452 -470.538 L -1764.775 -470.538 L -1725.114 -540.255 Z" style="stroke-width: 10.1679px;" transform="matrix(-0.845456, -0.534045, -0.508944, 0.861312, -800.81115, -185.091373)" bx:shape="triangle -1764.775 -540.255 79.323 69.717 0.5 0 1@68239c1d"/>
  </g>
</svg>