<?xml version="1.0" encoding="UTF-8" standalone="no"?>
<!DOCTYPE svg PUBLIC "-//W3C//DTD SVG 1.0//EN" "http://www.w3.org/TR/2001/REC-SVG-20010904/DTD/svg10.dtd">
<!-- Generato da Microsoft Visio 11.0, SVG Export, v1.0 Platform_Spec-23.svg Pagina 1 -->
<svg xmlns="http://www.w3.org/2000/svg" xmlns:v="http://schemas.microsoft.com/visio/2003/SVGExtensions/" width="10.7287in"
		height="4.4885in" viewBox="0 0 772.464 323.172" xml:space="preserve" color-interpolation-filters="sRGB" class="st7">
	<v:documentProperties v:langID="1040" v:metric="true" v:viewMarkup="false">
		<v:userDefs>
			<v:ud v:nameU="MBSAAddinOutlineVisible" v:prompt="" v:val="VT0(1):26"/>
		</v:userDefs>
	</v:documentProperties>

	<style type="text/css">
	<![CDATA[
		.st1 {fill:#ffffff;stroke:none;stroke-linecap:round;stroke-linejoin:round;stroke-width:0.72}
		.st2 {fill:#bfbfbf;stroke:#bfbfbf;stroke-linecap:round;stroke-linejoin:round;stroke-width:0.72}
		.st3 {fill:#ffffff;stroke:#000000;stroke-linecap:round;stroke-linejoin:round;stroke-width:0.72}
		.st4 {fill:none;stroke:none;stroke-linecap:round;stroke-linejoin:round;stroke-width:0.72}
		.st5 {fill:#000000;font-family:Arial;font-size:0.666664em}
		.st6 {stroke:#000000;stroke-linecap:round;stroke-linejoin:round;stroke-width:0.72}
		.st7 {fill:none;fill-rule:evenodd;font-size:12;overflow:visible;stroke-linecap:square;stroke-miterlimit:3}
	]]>
	</style>

	<g v:mID="0" v:index="1" v:groupContext="foregroundPage">
		<title>Pagina 1</title>
		<v:pageProperties v:drawingScale="0.0393701" v:pageScale="0.0393701" v:drawingUnits="24" v:shadowOffsetX="8.50394"
				v:shadowOffsetY="-8.50394"/>
		<g id="shape17-1" v:mID="17" v:groupContext="shape" transform="translate(0.72,-0.72)">
			<title>Foglio.17</title>
			<rect x="0" y="1.44" width="771.024" height="321.732" class="st1"/>
		</g>
		<g id="shape1-3" v:mID="1" v:groupContext="shape" transform="translate(185.69,-244.689)">
			<title>Foglio.1</title>
			<rect x="0" y="304.275" width="69.7427" height="18.8976" class="st2"/>
		</g>
		<g id="shape4-5" v:mID="4" v:groupContext="shape" transform="translate(182.137,-247.901)">
			<title>Foglio.4</title>
			<rect x="0" y="304.275" width="69.3339" height="18.8976" class="st3"/>
		</g>
		<g id="shape5-7" v:mID="5" v:groupContext="shape" transform="translate(182.137,-248.374)">
			<title>Foglio.5</title>
			<desc>description*</desc>
			<v:textBlock v:margins="rect(4,4,4,4)" v:tabSpace="42.5197"/>
			<v:textRect cx="25.3093" cy="313.96" width="50.62" height="18.4252"/>
			<rect x="0" y="304.747" width="50.6187" height="18.4252" class="st4"/>
			<text x="4.41" y="316.36" class="st5" v:langID="1040"><v:paragraph v:horizAlign="1"/><v:tabList/>description*</text>		</g>
		<g id="shape6-10" v:mID="6" v:groupContext="shape" transform="translate(94.8088,-244.216)">
			<title>Foglio.6</title>
			<rect x="0" y="304.275" width="78.4196" height="18.8976" class="st2"/>
		</g>
		<g id="shape7-12" v:mID="7" v:groupContext="shape" transform="translate(91.4287,-247.429)">
			<title>Foglio.7</title>
			<rect x="0" y="304.275" width="77.7436" height="18.8976" class="st3"/>
		</g>
		<g id="shape8-14" v:mID="8" v:groupContext="shape" transform="translate(91.4287,-247.901)">
			<title>Foglio.8</title>
			<desc>display-name*</desc>
			<v:textBlock v:margins="rect(4,4,4,4)" v:tabSpace="42.5197"/>
			<v:textRect cx="29.5613" cy="313.96" width="59.13" height="18.4252"/>
			<rect x="0" y="304.747" width="59.1226" height="18.4252" class="st4"/>
			<text x="4.22" y="316.36" class="st5" v:langID="1040"><v:paragraph v:horizAlign="1"/><v:tabList/>display-name*</text>		</g>
		<g id="shape9-17" v:mID="9" v:groupContext="shape" transform="translate(47.7076,-244.5)">
			<title>Foglio.9</title>
			<rect x="0" y="304.275" width="30.9651" height="18.8976" class="st2"/>
		</g>
		<g id="shape10-19" v:mID="10" v:groupContext="shape" transform="translate(44.657,-247.712)">
			<title>Foglio.10</title>
			<rect x="0" y="304.275" width="31.1811" height="18.8976" class="st3"/>
		</g>
		<g id="shape11-21" v:mID="11" v:groupContext="shape" transform="translate(44.657,-248.185)">
			<title>Foglio.11</title>
			<desc>icon*</desc>
			<v:textBlock v:margins="rect(4,4,4,4)" v:tabSpace="42.5197"/>
			<v:textRect cx="13.2621" cy="313.96" width="26.53" height="18.4252"/>
			<rect x="0" y="304.747" width="26.5242" height="18.4252" class="st4"/>
			<text x="4.37" y="316.36" class="st5" v:langID="1040"><v:paragraph v:horizAlign="1"/><v:tabList/>icon*</text>		</g>
		<g id="shape19-24" v:mID="19" v:groupContext="shape" transform="translate(15.5794,-198.295)">
			<title>Foglio.19</title>
			<rect x="0" y="304.275" width="61.676" height="18.8976" class="st2"/>
		</g>
		<g id="shape20-26" v:mID="20" v:groupContext="shape" transform="translate(9.22394,-201.507)">
			<title>Foglio.20</title>
			<rect x="0" y="304.275" width="64.9606" height="18.8976" class="st3"/>
		</g>
		<g id="shape21-28" v:mID="21" v:groupContext="shape" transform="translate(9.22394,-201.98)">
			<title>Foglio.21</title>
			<desc>small-icon?</desc>
			<v:textBlock v:margins="rect(4,4,4,4)" v:tabSpace="42.5197"/>
			<v:textRect cx="26.2205" cy="313.96" width="52.45" height="18.4252"/>
			<rect x="0" y="304.747" width="52.4409" height="18.4252" class="st4"/>
			<text x="5.99" y="316.36" class="st5" v:langID="1040"><v:paragraph v:horizAlign="1"/><v:tabList/>small-icon?</text>		</g>
		<g id="shape22-31" v:mID="22" v:groupContext="shape" transform="translate(89.2802,428.774) scale(1,-1)">
			<title>Foglio.22</title>
			<rect x="0" y="304.275" width="61.676" height="18.8976" class="st2"/>
		</g>
		<g id="shape23-33" v:mID="23" v:groupContext="shape" transform="translate(82.9247,425.94) scale(1,-1)">
			<title>Foglio.23</title>
			<rect x="0" y="304.275" width="64.9606" height="18.8976" class="st3"/>
		</g>
		<g id="shape24-35" v:mID="24" v:groupContext="shape" transform="translate(133.948,-201.507) scale(-1,1)">
			<title>Foglio.24</title>
			<desc>large-icon?</desc>
			<v:textBlock v:margins="rect(4,4,4,4)" v:tabSpace="42.5197"/>
			<v:textRect cx="25.5118" cy="313.96" width="51.03" height="18.4252"/>
			<rect x="0" y="304.747" width="51.0236" height="18.4252" class="st4"/>
			<text x="-45.3" y="316.36" transform="scale(-1,1)" class="st5" v:langID="1040"><v:paragraph v:horizAlign="1"/><v:tabList/>large-icon?</text>		</g>
		<g id="shape2-38" v:mID="2" v:groupContext="shape" transform="translate(681.035,366.412) rotate(180)">
			<title>Foglio.2</title>
			<path d="M0 323.17 L619.37 323.17" class="st6"/>
		</g>
		<g id="shape3-41" v:mID="3" v:groupContext="shape" transform="translate(-106.007,56.3735) rotate(-90)">
			<title>Foglio.3</title>
			<path d="M0 323.17 L13.13 323.17" class="st6"/>
		</g>
		<g id="shape16-44" v:mID="16" v:groupContext="shape" transform="translate(-261.507,88.972) rotate(-90)">
			<title>Foglio.16</title>
			<path d="M0 323.17 L13.13 323.17" class="st6"/>
		</g>
		<g id="shape12-47" v:mID="12" v:groupContext="shape" transform="translate(116.679,411.766) rotate(180)">
			<title>Foglio.12</title>
			<path d="M0 323.17 L76.02 323.17" class="st6"/>
		</g>
		<g id="shape13-50" v:mID="13" v:groupContext="shape" transform="translate(-282.512,101.728) rotate(-90)">
			<title>Foglio.13</title>
			<path d="M0 323.17 L13.13 323.17" class="st6"/>
		</g>
		<g id="shape14-53" v:mID="14" v:groupContext="shape" transform="translate(-206.704,102.2) rotate(-90)">
			<title>Foglio.14</title>
			<path d="M0 323.17 L13.13 323.17" class="st6"/>
		</g>
		<g id="shape36-56" v:mID="36" v:groupContext="shape" transform="translate(-261.507,56.3735) rotate(-90)">
			<title>Foglio.36</title>
			<path d="M0 323.17 L13.13 323.17" class="st6"/>
		</g>
		<g id="shape37-59" v:mID="37" v:groupContext="shape" transform="translate(-190.844,56.3735) rotate(-90)">
			<title>Foglio.37</title>
			<path d="M0 323.17 L13.13 323.17" class="st6"/>
		</g>
		<g id="shape15-62" v:mID="15" v:groupContext="shape" transform="translate(196.581,-291.555)">
			<title>Foglio.15</title>
			<rect x="0" y="304.275" width="99.7975" height="18.8976" class="st2"/>
		</g>
		<g id="shape18-64" v:mID="18" v:groupContext="shape" transform="translate(192.621,-294.767)">
			<title>Foglio.18</title>
			<rect x="0" y="304.275" width="99.2126" height="18.8976" class="st3"/>
		</g>
		<g id="shape25-66" v:mID="25" v:groupContext="shape" transform="translate(192.621,-295.24)">
			<title>Foglio.25</title>
			<desc>application-client</desc>
			<v:textBlock v:margins="rect(4,4,4,4)" v:tabSpace="42.5197"/>
			<v:textRect cx="34.0157" cy="313.96" width="68.04" height="18.4252"/>
			<rect x="0" y="304.747" width="68.0315" height="18.4252" class="st4"/>
			<text x="4.22" y="316.36" class="st5" v:langID="1040"><v:paragraph v:horizAlign="1"/><v:tabList/>application-client</text>		</g>
		<g id="shape597-69" v:mID="597" v:groupContext="shape" transform="translate(-80.0025,43.6176) rotate(-90)">
			<title>Foglio.597</title>
			<path d="M0 323.17 L13.13 323.17" class="st6"/>
		</g>
		<g id="shape31-72" v:mID="31" v:groupContext="shape" transform="translate(271.708,-243.649)">
			<title>Foglio.31</title>
			<rect x="0" y="304.275" width="67.5496" height="18.8976" class="st2"/>
		</g>
		<g id="shape32-74" v:mID="32" v:groupContext="shape" transform="translate(268.796,-246.862)">
			<title>Foglio.32</title>
			<rect x="0" y="304.275" width="66.9672" height="18.8976" class="st3"/>
		</g>
		<g id="shape33-76" v:mID="33" v:groupContext="shape" transform="translate(268.796,-247.334)">
			<title>Foglio.33</title>
			<desc>env-entry*</desc>
			<v:textBlock v:margins="rect(4,4,4,4)" v:tabSpace="42.5197"/>
			<v:textRect cx="25.3093" cy="313.96" width="50.62" height="18.4252"/>
			<rect x="0" y="304.747" width="50.6187" height="18.4252" class="st4"/>
			<text x="7.08" y="316.36" class="st5" v:langID="1040"><v:paragraph v:horizAlign="1"/><v:tabList/>env-entry*</text>		</g>
		<g id="shape41-79" v:mID="41" v:groupContext="shape" transform="translate(14.1001,-155.681)">
			<title>Foglio.41</title>
			<rect x="0" y="304.275" width="62.3669" height="18.8976" class="st2"/>
		</g>
		<g id="shape42-81" v:mID="42" v:groupContext="shape" transform="translate(10.4173,-158.515)">
			<title>Foglio.42</title>
			<rect x="0" y="304.275" width="63.0529" height="18.8976" class="st3"/>
		</g>
		<g id="shape43-83" v:mID="43" v:groupContext="shape" transform="translate(10.4173,-158.988)">
			<title>Foglio.43</title>
			<desc>description*</desc>
			<v:textBlock v:margins="rect(4,4,4,4)" v:tabSpace="42.5197"/>
			<v:textRect cx="25.2296" cy="313.96" width="50.46" height="18.4252"/>
			<rect x="0" y="304.747" width="50.4592" height="18.4252" class="st4"/>
			<text x="4.33" y="316.36" class="st5" v:langID="1040"><v:paragraph v:horizAlign="1"/><v:tabList/>description*</text>		</g>
		<g id="shape44-86" v:mID="44" v:groupContext="shape" transform="translate(85.7929,-155.492)">
			<title>Foglio.44</title>
			<rect x="0" y="304.275" width="90.8991" height="18.8976" class="st2"/>
		</g>
		<g id="shape45-88" v:mID="45" v:groupContext="shape" transform="translate(81.8749,-158.704)">
			<title>Foglio.45</title>
			<rect x="0" y="304.275" width="90.1154" height="18.8976" class="st3"/>
		</g>
		<g id="shape46-90" v:mID="46" v:groupContext="shape" transform="translate(81.8529,-159.177)">
			<title>Foglio.46</title>
			<desc>env-entry-name</desc>
			<v:textBlock v:margins="rect(4,4,4,4)" v:tabSpace="42.5197"/>
			<v:textRect cx="35.1578" cy="313.96" width="70.32" height="18.4252"/>
			<rect x="0" y="304.747" width="70.3156" height="18.4252" class="st4"/>
			<text x="7.15" y="316.36" class="st5" v:langID="1040"><v:paragraph v:horizAlign="1"/><v:tabList/>env-entry-name</text>		</g>
		<g id="shape47-93" v:mID="47" v:groupContext="shape" transform="translate(188.283,-155.492)">
			<title>Foglio.47</title>
			<rect x="0" y="304.275" width="90.578" height="18.8976" class="st2"/>
		</g>
		<g id="shape48-95" v:mID="48" v:groupContext="shape" transform="translate(184.378,-158.704)">
			<title>Foglio.48</title>
			<rect x="0" y="304.275" width="89.7972" height="18.8976" class="st3"/>
		</g>
		<g id="shape49-97" v:mID="49" v:groupContext="shape" transform="translate(184.305,-159.177)">
			<title>Foglio.49</title>
			<desc>env-entry-type?</desc>
			<v:textBlock v:margins="rect(4,4,4,4)" v:tabSpace="42.5197"/>
			<v:textRect cx="35.0231" cy="313.96" width="70.05" height="18.4252"/>
			<rect x="0" y="304.747" width="70.0462" height="18.4252" class="st4"/>
			<text x="7.23" y="316.36" class="st5" v:langID="1040"><v:paragraph v:horizAlign="1"/><v:tabList/>env-entry-type?</text>		</g>
		<g id="shape50-100" v:mID="50" v:groupContext="shape" transform="translate(291.626,-155.492)">
			<title>Foglio.50</title>
			<rect x="0" y="304.275" width="90.578" height="18.8976" class="st2"/>
		</g>
		<g id="shape51-102" v:mID="51" v:groupContext="shape" transform="translate(287.722,-158.704)">
			<title>Foglio.51</title>
			<rect x="0" y="304.275" width="89.7972" height="18.8976" class="st3"/>
		</g>
		<g id="shape52-104" v:mID="52" v:groupContext="shape" transform="translate(287.648,-159.177)">
			<title>Foglio.52</title>
			<desc>env-entry-value?</desc>
			<v:textBlock v:margins="rect(4,4,4,4)" v:tabSpace="42.5197"/>
			<v:textRect cx="35.0231" cy="313.96" width="70.05" height="18.4252"/>
			<rect x="0" y="304.747" width="70.0462" height="18.4252" class="st4"/>
			<text x="5.23" y="316.36" class="st5" v:langID="1040"><v:paragraph v:horizAlign="1"/><v:tabList/>env-entry-value?</text>		</g>
		<g id="shape26-107" v:mID="26" v:groupContext="shape" transform="translate(-21.9798,57.4129) rotate(-90)">
			<title>Foglio.26</title>
			<path d="M0 323.17 L13.13 323.17" class="st6"/>
		</g>
		<g id="shape27-110" v:mID="27" v:groupContext="shape" transform="translate(337.209,454.853) rotate(180)">
			<title>Foglio.27</title>
			<path d="M0 323.17 L298.75 323.17" class="st6"/>
		</g>
		<g id="shape28-113" v:mID="28" v:groupContext="shape" transform="translate(-284.715,144.814) rotate(-90)">
			<title>Foglio.28</title>
			<path d="M0 323.17 L13.13 323.17" class="st6"/>
		</g>
		<g id="shape29-116" v:mID="29" v:groupContext="shape" transform="translate(-198.516,145.287) rotate(-90)">
			<title>Foglio.29</title>
			<path d="M0 323.17 L13.13 323.17" class="st6"/>
		</g>
		<g id="shape30-119" v:mID="30" v:groupContext="shape" transform="translate(-90.7997,144.814) rotate(-90)">
			<title>Foglio.30</title>
			<path d="M0 323.17 L13.13 323.17" class="st6"/>
		</g>
		<g id="shape34-122" v:mID="34" v:groupContext="shape" transform="translate(14.0821,145.287) rotate(-90)">
			<title>Foglio.34</title>
			<path d="M0 323.17 L13.13 323.17" class="st6"/>
		</g>
		<g id="shape35-125" v:mID="35" v:groupContext="shape" transform="translate(-21.9798,131.681) rotate(-90)">
			<title>Foglio.35</title>
			<path d="M0 323.17 L55.37 323.17" class="st6"/>
		</g>
		<g id="shape38-128" v:mID="38" v:groupContext="shape" transform="translate(357.752,-243.366)">
			<title>Foglio.38</title>
			<rect x="0" y="304.275" width="49.0313" height="18.8976" class="st2"/>
		</g>
		<g id="shape39-130" v:mID="39" v:groupContext="shape" transform="translate(354.342,-246.578)">
			<title>Foglio.39</title>
			<rect x="0" y="304.275" width="48.6086" height="18.8976" class="st3"/>
		</g>
		<g id="shape40-132" v:mID="40" v:groupContext="shape" transform="translate(354.342,-247.051)">
			<title>Foglio.40</title>
			<desc>ejb-ref*</desc>
			<v:textBlock v:margins="rect(4,4,4,4)" v:tabSpace="42.5197"/>
			<v:textRect cx="20.2056" cy="313.96" width="40.42" height="18.4252"/>
			<rect x="0" y="304.747" width="40.4113" height="18.4252" class="st4"/>
			<text x="7.31" y="316.36" class="st5" v:langID="1040"><v:paragraph v:horizAlign="1"/><v:tabList/>ejb-ref*</text>		</g>
		<g id="shape59-135" v:mID="59" v:groupContext="shape" transform="translate(133.887,-107.586)">
			<title>Foglio.59</title>
			<rect x="0" y="304.275" width="70.9271" height="18.8976" class="st2"/>
		</g>
		<g id="shape60-137" v:mID="60" v:groupContext="shape" transform="translate(130.83,-110.799)">
			<title>Foglio.60</title>
			<rect x="0" y="304.275" width="70.3156" height="18.8976" class="st3"/>
		</g>
		<g id="shape61-139" v:mID="61" v:groupContext="shape" transform="translate(130.83,-111.271)">
			<title>Foglio.61</title>
			<desc>ejb-ref-name</desc>
			<v:textBlock v:margins="rect(4,4,4,4)" v:tabSpace="42.5197"/>
			<v:textRect cx="27.572" cy="313.96" width="55.15" height="18.4252"/>
			<rect x="0" y="304.747" width="55.144" height="18.4252" class="st4"/>
			<text x="4.9" y="316.36" class="st5" v:langID="1040"><v:paragraph v:horizAlign="1"/><v:tabList/>ejb-ref-name</text>		</g>
		<g id="shape62-142" v:mID="62" v:groupContext="shape" transform="translate(216.364,-107.586)">
			<title>Foglio.62</title>
			<rect x="0" y="304.275" width="70.6553" height="18.8976" class="st2"/>
		</g>
		<g id="shape63-144" v:mID="63" v:groupContext="shape" transform="translate(213.318,-110.799)">
			<title>Foglio.63</title>
			<rect x="0" y="304.275" width="70.0462" height="18.8976" class="st3"/>
		</g>
		<g id="shape64-146" v:mID="64" v:groupContext="shape" transform="translate(213.318,-111.271)">
			<title>Foglio.64</title>
			<desc>ejb-ref-type?</desc>
			<v:textBlock v:margins="rect(4,4,4,4)" v:tabSpace="42.5197"/>
			<v:textRect cx="27.4303" cy="313.96" width="54.87" height="18.4252"/>
			<rect x="0" y="304.747" width="54.8605" height="18.4252" class="st4"/>
			<text x="4.98" y="316.36" class="st5" v:langID="1040"><v:paragraph v:horizAlign="1"/><v:tabList/>ejb-ref-type?</text>		</g>
		<g id="shape65-149" v:mID="65" v:groupContext="shape" transform="translate(297.912,-108.626)">
			<title>Foglio.65</title>
			<rect x="0" y="304.275" width="45.7998" height="18.8976" class="st2"/>
		</g>
		<g id="shape66-151" v:mID="66" v:groupContext="shape" transform="translate(295.938,-111.838)">
			<title>Foglio.66</title>
			<rect x="0" y="304.275" width="45.4049" height="18.8976" class="st3"/>
		</g>
		<g id="shape67-153" v:mID="67" v:groupContext="shape" transform="translate(295.938,-112.311)">
			<title>Foglio.67</title>
			<desc>home?</desc>
			<v:textBlock v:margins="rect(4,4,4,4)" v:tabSpace="42.5197"/>
			<v:textRect cx="17.509" cy="313.96" width="35.02" height="18.4252"/>
			<rect x="0" y="304.747" width="35.018" height="18.4252" class="st4"/>
			<text x="5.28" y="316.36" class="st5" v:langID="1040"><v:paragraph v:horizAlign="1"/><v:tabList/>home?</text>		</g>
		<g id="shape70-156" v:mID="70" v:groupContext="shape" transform="translate(354.366,-107.303)">
			<title>Foglio.70</title>
			<rect x="0" y="304.275" width="49.876" height="18.8976" class="st2"/>
		</g>
		<g id="shape71-158" v:mID="71" v:groupContext="shape" transform="translate(352.216,-110.515)">
			<title>Foglio.71</title>
			<rect x="0" y="304.275" width="49.4461" height="18.8976" class="st3"/>
		</g>
		<g id="shape72-160" v:mID="72" v:groupContext="shape" transform="translate(352.216,-110.988)">
			<title>Foglio.72</title>
			<desc>remote?</desc>
			<v:textBlock v:margins="rect(4,4,4,4)" v:tabSpace="42.5197"/>
			<v:textRect cx="18.9263" cy="313.96" width="37.86" height="18.4252"/>
			<rect x="0" y="304.747" width="37.8526" height="18.4252" class="st4"/>
			<text x="4.25" y="316.36" class="st5" v:langID="1040"><v:paragraph v:horizAlign="1"/><v:tabList/>remote?</text>		</g>
		<g id="shape73-163" v:mID="73" v:groupContext="shape" transform="translate(415.609,-107.539)">
			<title>Foglio.73</title>
			<rect x="0" y="304.275" width="47.1585" height="18.8976" class="st2"/>
		</g>
		<g id="shape74-165" v:mID="74" v:groupContext="shape" transform="translate(413.576,-110.751)">
			<title>Foglio.74</title>
			<rect x="0" y="304.275" width="46.752" height="18.8976" class="st3"/>
		</g>
		<g id="shape75-167" v:mID="75" v:groupContext="shape" transform="translate(413.576,-111.224)">
			<title>Foglio.75</title>
			<desc>ejb-link?</desc>
			<v:textBlock v:margins="rect(4,4,4,4)" v:tabSpace="42.5197"/>
			<v:textRect cx="18.9263" cy="313.96" width="37.86" height="18.4252"/>
			<rect x="0" y="304.747" width="37.8526" height="18.4252" class="st4"/>
			<text x="4.03" y="316.36" class="st5" v:langID="1040"><v:paragraph v:horizAlign="1"/><v:tabList/>ejb-link?</text>		</g>
		<g id="shape93-170" v:mID="93" v:groupContext="shape" transform="translate(54.5556,57.4129) rotate(-90)">
			<title>Foglio.93</title>
			<path d="M0 323.17 L13.13 323.17" class="st6"/>
		</g>
		<g id="shape94-173" v:mID="94" v:groupContext="shape" transform="translate(54.5556,114.106) rotate(-90)">
			<title>Foglio.94</title>
			<path d="M0 323.17 L37.98 323.17" class="st6"/>
		</g>
		<g id="shape95-176" v:mID="95" v:groupContext="shape" transform="translate(394.736,437.278) rotate(180)">
			<title>Foglio.95</title>
			<path d="M0 323.17 L17.01 323.17" class="st6"/>
		</g>
		<g id="shape96-179" v:mID="96" v:groupContext="shape" transform="translate(717.908,114.106) rotate(90)">
			<title>Foglio.96</title>
			<path d="M0 323.17 L65.2 323.17" class="st6"/>
		</g>
		<g id="shape97-182" v:mID="97" v:groupContext="shape" transform="translate(61.0957,-108.059)">
			<title>Foglio.97</title>
			<rect x="0" y="304.275" width="62.3669" height="18.8976" class="st2"/>
		</g>
		<g id="shape98-184" v:mID="98" v:groupContext="shape" transform="translate(57.4129,-110.893)">
			<title>Foglio.98</title>
			<rect x="0" y="304.275" width="63.0529" height="18.8976" class="st3"/>
		</g>
		<g id="shape99-186" v:mID="99" v:groupContext="shape" transform="translate(57.4129,-111.366)">
			<title>Foglio.99</title>
			<desc>description*</desc>
			<v:textBlock v:margins="rect(4,4,4,4)" v:tabSpace="42.5197"/>
			<v:textRect cx="25.2296" cy="313.96" width="50.46" height="18.4252"/>
			<rect x="0" y="304.747" width="50.4592" height="18.4252" class="st4"/>
			<text x="4.33" y="316.36" class="st5" v:langID="1040"><v:paragraph v:horizAlign="1"/><v:tabList/>description*</text>		</g>
		<g id="shape109-189" v:mID="109" v:groupContext="shape" transform="translate(437.369,502.475) rotate(180)">
			<title>Foglio.109</title>
			<path d="M0 323.17 L350.72 323.17" class="st6"/>
		</g>
		<g id="shape110-192" v:mID="110" v:groupContext="shape" transform="translate(-236.526,192.437) rotate(-90)">
			<title>Foglio.110</title>
			<path d="M0 323.17 L13.13 323.17" class="st6"/>
		</g>
		<g id="shape111-195" v:mID="111" v:groupContext="shape" transform="translate(-150.327,192.909) rotate(-90)">
			<title>Foglio.111</title>
			<path d="M0 323.17 L13.13 323.17" class="st6"/>
		</g>
		<g id="shape112-198" v:mID="112" v:groupContext="shape" transform="translate(-70.1688,192.437) rotate(-90)">
			<title>Foglio.112</title>
			<path d="M0 323.17 L13.13 323.17" class="st6"/>
		</g>
		<g id="shape113-201" v:mID="113" v:groupContext="shape" transform="translate(51.7209,192.909) rotate(-90)">
			<title>Foglio.113</title>
			<path d="M0 323.17 L13.13 323.17" class="st6"/>
		</g>
		<g id="shape53-204" v:mID="53" v:groupContext="shape" transform="translate(-4.97197,192.437) rotate(-90)">
			<title>Foglio.53</title>
			<path d="M0 323.17 L13.13 323.17" class="st6"/>
		</g>
		<g id="shape54-207" v:mID="54" v:groupContext="shape" transform="translate(114.083,192.956) rotate(-90)">
			<title>Foglio.54</title>
			<path d="M0 323.17 L13.13 323.17" class="st6"/>
		</g>
		<g id="shape55-210" v:mID="55" v:groupContext="shape" transform="translate(424.404,-243.649)">
			<title>Foglio.55</title>
			<rect x="0" y="304.275" width="70.3947" height="18.8976" class="st2"/>
		</g>
		<g id="shape56-212" v:mID="56" v:groupContext="shape" transform="translate(419.397,-246.862)">
			<title>Foglio.56</title>
			<rect x="0" y="304.275" width="71.3784" height="18.8976" class="st3"/>
		</g>
		<g id="shape57-214" v:mID="57" v:groupContext="shape" transform="translate(419.397,-247.334)">
			<title>Foglio.57</title>
			<desc>resource-ref*</desc>
			<v:textBlock v:margins="rect(4,4,4,4)" v:tabSpace="42.5197"/>
			<v:textRect cx="27.7795" cy="313.96" width="55.56" height="18.4252"/>
			<rect x="0" y="304.747" width="55.5591" height="18.4252" class="st4"/>
			<text x="4.66" y="316.36" class="st5" v:langID="1040"><v:paragraph v:horizAlign="1"/><v:tabList/>resource-ref*</text>		</g>
		<g id="shape78-217" v:mID="78" v:groupContext="shape" transform="translate(106.569,-59.7751)">
			<title>Foglio.78</title>
			<rect x="0" y="304.275" width="64.3744" height="18.8976" class="st2"/>
		</g>
		<g id="shape79-219" v:mID="79" v:groupContext="shape" transform="translate(102.767,-62.6098)">
			<title>Foglio.79</title>
			<rect x="0" y="304.275" width="65.0825" height="18.8976" class="st3"/>
		</g>
		<g id="shape80-221" v:mID="80" v:groupContext="shape" transform="translate(102.767,-63.0822)">
			<title>Foglio.80</title>
			<desc>description*</desc>
			<v:textBlock v:margins="rect(4,4,4,4)" v:tabSpace="42.5197"/>
			<v:textRect cx="26.0446" cy="313.96" width="52.09" height="18.4252"/>
			<rect x="0" y="304.747" width="52.0892" height="18.4252" class="st4"/>
			<text x="5.14" y="316.36" class="st5" v:langID="1040"><v:paragraph v:horizAlign="1"/><v:tabList/>description*</text>		</g>
		<g id="shape81-224" v:mID="81" v:groupContext="shape" transform="translate(182.232,-59.3972)">
			<title>Foglio.81</title>
			<rect x="0" y="304.275" width="70.9271" height="18.8976" class="st2"/>
		</g>
		<g id="shape82-226" v:mID="82" v:groupContext="shape" transform="translate(179.175,-62.6098)">
			<title>Foglio.82</title>
			<rect x="0" y="304.275" width="70.3156" height="18.8976" class="st3"/>
		</g>
		<g id="shape83-228" v:mID="83" v:groupContext="shape" transform="translate(179.147,-63.0822)">
			<title>Foglio.83</title>
			<desc>res-ref-name</desc>
			<v:textBlock v:margins="rect(4,4,4,4)" v:tabSpace="42.5197"/>
			<v:textRect cx="26.9826" cy="313.96" width="53.97" height="18.4252"/>
			<rect x="0" y="304.747" width="53.9652" height="18.4252" class="st4"/>
			<text x="4.09" y="316.36" class="st5" v:langID="1040"><v:paragraph v:horizAlign="1"/><v:tabList/>res-ref-name</text>		</g>
		<g id="shape84-231" v:mID="84" v:groupContext="shape" transform="translate(264.074,-59.3972)">
			<title>Foglio.84</title>
			<rect x="0" y="304.275" width="57.3589" height="18.8976" class="st2"/>
		</g>
		<g id="shape85-233" v:mID="85" v:groupContext="shape" transform="translate(261.602,-62.6098)">
			<title>Foglio.85</title>
			<rect x="0" y="304.275" width="56.8644" height="18.8976" class="st3"/>
		</g>
		<g id="shape86-235" v:mID="86" v:groupContext="shape" transform="translate(261.507,-63.0822)">
			<title>Foglio.86</title>
			<desc>res-type?</desc>
			<v:textBlock v:margins="rect(4,4,4,4)" v:tabSpace="42.5197"/>
			<v:textRect cx="20.7501" cy="313.96" width="41.51" height="18.4252"/>
			<rect x="0" y="304.747" width="41.5002" height="18.4252" class="st4"/>
			<text x="4.08" y="316.36" class="st5" v:langID="1040"><v:paragraph v:horizAlign="1"/><v:tabList/>res-type?</text>		</g>
		<g id="shape87-238" v:mID="87" v:groupContext="shape" transform="translate(333.722,-59.9641)">
			<title>Foglio.87</title>
			<rect x="0" y="304.275" width="57.3589" height="18.8976" class="st2"/>
		</g>
		<g id="shape88-240" v:mID="88" v:groupContext="shape" transform="translate(331.249,-62.6098)">
			<title>Foglio.88</title>
			<rect x="0" y="304.275" width="56.8644" height="18.8976" class="st3"/>
		</g>
		<g id="shape89-242" v:mID="89" v:groupContext="shape" transform="translate(331.155,-63.0822)">
			<title>Foglio.89</title>
			<desc>res-auth?</desc>
			<v:textBlock v:margins="rect(4,4,4,4)" v:tabSpace="42.5197"/>
			<v:textRect cx="21.4588" cy="313.96" width="42.92" height="18.4252"/>
			<rect x="0" y="304.747" width="42.9176" height="18.4252" class="st4"/>
			<text x="4.56" y="316.36" class="st5" v:langID="1040"><v:paragraph v:horizAlign="1"/><v:tabList/>res-auth?</text>		</g>
		<g id="shape118-245" v:mID="118" v:groupContext="shape" transform="translate(404.655,-59.3972)">
			<title>Foglio.118</title>
			<rect x="0" y="304.275" width="97.9957" height="18.8976" class="st2"/>
		</g>
		<g id="shape119-247" v:mID="119" v:groupContext="shape" transform="translate(400.3,-62.6098)">
			<title>Foglio.119</title>
			<rect x="0" y="304.275" width="100.17" height="18.8976" class="st3"/>
		</g>
		<g id="shape120-249" v:mID="120" v:groupContext="shape" transform="translate(400.206,-63.0822)">
			<title>Foglio.120</title>
			<desc>res-sharing-scope?</desc>
			<v:textBlock v:margins="rect(4,4,4,4)" v:tabSpace="42.5197"/>
			<v:textRect cx="39.1753" cy="313.96" width="78.36" height="18.4252"/>
			<rect x="0" y="304.747" width="78.3506" height="18.4252" class="st4"/>
			<text x="4.94" y="316.36" class="st5" v:langID="1040"><v:paragraph v:horizAlign="1"/><v:tabList/>res-sharing-scope?</text>		</g>
		<g id="shape77-252" v:mID="77" v:groupContext="shape" transform="translate(128.256,57.4129) rotate(-90)">
			<title>Foglio.77</title>
			<path d="M0 323.17 L13.13 323.17" class="st6"/>
		</g>
		<g id="shape58-255" v:mID="58" v:groupContext="shape" transform="translate(128.256,114.673) rotate(-90)">
			<title>Foglio.58</title>
			<path d="M0 323.17 L37.98 323.17" class="st6"/>
		</g>
		<g id="shape68-258" v:mID="68" v:groupContext="shape" transform="translate(479.775,437.845) rotate(180)">
			<title>Foglio.68</title>
			<path d="M0 323.17 L28.35 323.17" class="st6"/>
		</g>
		<g id="shape69-261" v:mID="69" v:groupContext="shape" transform="translate(802.947,114.673) rotate(90)">
			<title>Foglio.69</title>
			<path d="M0 323.17 L112.82 323.17" class="st6"/>
		</g>
		<g id="shape76-264" v:mID="76" v:groupContext="shape" transform="translate(479.775,550.664) rotate(180)">
			<title>Foglio.76</title>
			<path d="M0 323.17 L350.72 323.17" class="st6"/>
		</g>
		<g id="shape90-267" v:mID="90" v:groupContext="shape" transform="translate(128.256,241.665) rotate(-90)">
			<title>Foglio.90</title>
			<path d="M0 323.17 L13.13 323.17" class="st6"/>
		</g>
		<g id="shape91-270" v:mID="91" v:groupContext="shape" transform="translate(36.3293,241.665) rotate(-90)">
			<title>Foglio.91</title>
			<path d="M0 323.17 L13.13 323.17" class="st6"/>
		</g>
		<g id="shape92-273" v:mID="92" v:groupContext="shape" transform="translate(-33.3184,241.665) rotate(-90)">
			<title>Foglio.92</title>
			<path d="M0 323.17 L13.13 323.17" class="st6"/>
		</g>
		<g id="shape100-276" v:mID="100" v:groupContext="shape" transform="translate(-109.854,241.665) rotate(-90)">
			<title>Foglio.100</title>
			<path d="M0 323.17 L13.13 323.17" class="st6"/>
		</g>
		<g id="shape101-279" v:mID="101" v:groupContext="shape" transform="translate(-194.119,240.626) rotate(-90)">
			<title>Foglio.101</title>
			<path d="M0 323.17 L13.13 323.17" class="st6"/>
		</g>
		<g id="shape107-282" v:mID="107" v:groupContext="shape" transform="translate(510.956,-243.649)">
			<title>Foglio.107</title>
			<rect x="0" y="304.275" width="97.9175" height="18.8976" class="st2"/>
		</g>
		<g id="shape108-284" v:mID="108" v:groupContext="shape" transform="translate(505.287,-246.862)">
			<title>Foglio.108</title>
			<rect x="0" y="304.275" width="99.2857" height="18.8976" class="st3"/>
		</g>
		<g id="shape114-286" v:mID="114" v:groupContext="shape" transform="translate(505.287,-247.334)">
			<title>Foglio.114</title>
			<desc>resource-env-ref*</desc>
			<v:textBlock v:margins="rect(4,4,4,4)" v:tabSpace="42.5197"/>
			<v:textRect cx="35.4331" cy="313.96" width="70.87" height="18.4252"/>
			<rect x="0" y="304.747" width="70.8661" height="18.4252" class="st4"/>
			<text x="4.53" y="316.36" class="st5" v:langID="1040"><v:paragraph v:horizAlign="1"/><v:tabList/>resource-env-ref*</text>		</g>
		<g id="shape122-289" v:mID="122" v:groupContext="shape" transform="translate(183.032,-9.88535)">
			<title>Foglio.122</title>
			<rect x="0" y="304.275" width="64.3744" height="18.8976" class="st2"/>
		</g>
		<g id="shape123-291" v:mID="123" v:groupContext="shape" transform="translate(179.231,-12.72)">
			<title>Foglio.123</title>
			<rect x="0" y="304.275" width="65.0825" height="18.8976" class="st3"/>
		</g>
		<g id="shape124-293" v:mID="124" v:groupContext="shape" transform="translate(179.231,-13.1924)">
			<title>Foglio.124</title>
			<desc>description*</desc>
			<v:textBlock v:margins="rect(4,4,4,4)" v:tabSpace="42.5197"/>
			<v:textRect cx="26.0446" cy="313.96" width="52.09" height="18.4252"/>
			<rect x="0" y="304.747" width="52.0892" height="18.4252" class="st4"/>
			<text x="5.14" y="316.36" class="st5" v:langID="1040"><v:paragraph v:horizAlign="1"/><v:tabList/>description*</text>		</g>
		<g id="shape125-296" v:mID="125" v:groupContext="shape" transform="translate(264.529,-9.5074)">
			<title>Foglio.125</title>
			<rect x="0" y="304.275" width="133.042" height="18.8976" class="st2"/>
		</g>
		<g id="shape126-298" v:mID="126" v:groupContext="shape" transform="translate(261.629,-12.72)">
			<title>Foglio.126</title>
			<rect x="0" y="304.275" width="131.895" height="18.8976" class="st3"/>
		</g>
		<g id="shape127-300" v:mID="127" v:groupContext="shape" transform="translate(261.601,-13.1924)">
			<title>Foglio.127</title>
			<desc>resource-env-ref-name</desc>
			<v:textBlock v:margins="rect(4,4,4,4)" v:tabSpace="42.5197"/>
			<v:textRect cx="46.725" cy="313.96" width="93.46" height="18.4252"/>
			<rect x="0" y="304.747" width="93.4501" height="18.4252" class="st4"/>
			<text x="6.04" y="316.36" class="st5" v:langID="1040"><v:paragraph v:horizAlign="1"/><v:tabList/>resource-env-ref-name</text>		</g>
		<g id="shape128-303" v:mID="128" v:groupContext="shape" transform="translate(415.037,-9.5074)">
			<title>Foglio.128</title>
			<rect x="0" y="304.275" width="132.77" height="18.8976" class="st2"/>
		</g>
		<g id="shape129-305" v:mID="129" v:groupContext="shape" transform="translate(412.149,-12.72)">
			<title>Foglio.129</title>
			<rect x="0" y="304.275" width="131.625" height="18.8976" class="st3"/>
		</g>
		<g id="shape130-307" v:mID="130" v:groupContext="shape" transform="translate(412.054,-13.1924)">
			<title>Foglio.130</title>
			<desc>resource-env-ref-type?</desc>
			<v:textBlock v:margins="rect(4,4,4,4)" v:tabSpace="42.5197"/>
			<v:textRect cx="46.6163" cy="313.96" width="93.24" height="18.4252"/>
			<rect x="0" y="304.747" width="93.2325" height="18.4252" class="st4"/>
			<text x="6.16" y="316.36" class="st5" v:langID="1040"><v:paragraph v:horizAlign="1"/><v:tabList/>resource-env-ref-type?</text>		</g>
		<g id="shape102-310" v:mID="102" v:groupContext="shape" transform="translate(227.469,114.673) rotate(-90)">
			<title>Foglio.102</title>
			<path d="M0 323.17 L37.98 323.17" class="st6"/>
		</g>
		<g id="shape104-313" v:mID="104" v:groupContext="shape" transform="translate(873.814,114.673) rotate(90)">
			<title>Foglio.104</title>
			<path d="M0 323.17 L163.84 323.17" class="st6"/>
		</g>
		<g id="shape103-316" v:mID="103" v:groupContext="shape" transform="translate(550.641,601.688) rotate(180)">
			<title>Foglio.103</title>
			<path d="M0 323.17 L331.65 323.17" class="st6"/>
		</g>
		<g id="shape105-319" v:mID="105" v:groupContext="shape" transform="translate(-104.185,291.555) rotate(-90)">
			<title>Foglio.105</title>
			<path d="M0 323.17 L13.13 323.17" class="st6"/>
		</g>
		<g id="shape106-322" v:mID="106" v:groupContext="shape" transform="translate(6.93354,291.649) rotate(-90)">
			<title>Foglio.106</title>
			<path d="M0 323.17 L13.13 323.17" class="st6"/>
		</g>
		<g id="shape115-325" v:mID="115" v:groupContext="shape" transform="translate(156.603,291.555) rotate(-90)">
			<title>Foglio.115</title>
			<path d="M0 323.17 L13.13 323.17" class="st6"/>
		</g>
		<g id="shape116-328" v:mID="116" v:groupContext="shape" transform="translate(631.811,-243.366)">
			<title>Foglio.116</title>
			<rect x="0" y="304.275" width="111.869" height="18.8976" class="st2"/>
		</g>
		<g id="shape117-330" v:mID="117" v:groupContext="shape" transform="translate(625.334,-246.578)">
			<title>Foglio.117</title>
			<rect x="0" y="304.275" width="113.432" height="18.8976" class="st3"/>
		</g>
		<g id="shape121-332" v:mID="121" v:groupContext="shape" transform="translate(625.334,-247.051)">
			<title>Foglio.121</title>
			<desc>callback-handler?</desc>
			<v:textBlock v:margins="rect(4,4,4,4)" v:tabSpace="42.5197"/>
			<v:textRect cx="35.7874" cy="313.96" width="71.58" height="18.4252"/>
			<rect x="0" y="304.747" width="71.5748" height="18.4252" class="st4"/>
			<text x="4.44" y="316.36" class="st5" v:langID="1040"><v:paragraph v:horizAlign="1"/><v:tabList/>callback-handler?</text>		</g>
		<g id="shape131-335" v:mID="131" v:groupContext="shape" transform="translate(227.469,57.4129) rotate(-90)">
			<title>Foglio.131</title>
			<path d="M0 323.17 L13.13 323.17" class="st6"/>
		</g>
		<g id="shape132-338" v:mID="132" v:groupContext="shape" transform="translate(357.863,57.4129) rotate(-90)">
			<title>Foglio.132</title>
			<path d="M0 323.17 L13.13 323.17" class="st6"/>
		</g>
	</g>
</svg>
