<?xml version="1.0" encoding="utf-8"?>
<svg version="1.0" width="300.000000pt" height="62.000000pt" viewBox="0 0 300.000000 62.000000" preserveAspectRatio="xMidYMid meet" xmlns="http://www.w3.org/2000/svg" xmlns:bx="https://boxy-svg.com">
  <defs>

  </defs>
  <g transform="translate(0.000000,62.000000) scale(0.100000,-0.100000)" fill="#000000" stroke="none">
    <path d="M1940 361 l0 -90 -35 15 c-44 18 -51 18 -35 -1 12 -14 -9 -16 -188 -15 -156 1 -203 5 -212 15 -14 16 -50 16 -50 -1 0 -8 -25 -12 -80 -11 -64 0 -80 3 -83 16 -4 14 -5 14 -6 0 -1 -15 -17 -17 -112 -18 l-111 -2 2 48 c3 92 20 84 -162 81 l-163 -3 -3 -133 c-2 -111 0 -133 13 -138 8 -3 12 -10 9 -15 -3 -5 66 -9 161 -9 161 0 165 1 155 19 -5 11 -10 47 -10 80 l0 60 426 1 c382 0 425 -2 414 -15 -21 -25 -5 -27 34 -4 l36 21 0 -96 0 -96 218 -2 217 -2 -210 -6 c-115 -3 -208 -7 -205 -8 3 -1 98 -3 213 -5 l207 -2 0 180 c0 99 -3 190 -6 203 -6 22 -7 22 -220 22 l-214 0 0 -89z m420 -101 l0 -180 -205 0 -205 0 0 180 0 180 205 0 205 0 0 -180z m-1340 0 l0 -120 -150 0 -150 0 0 120 0 120 150 0 150 0 0 -120z m445 20 c3 -5 -3 -10 -15 -10 -12 0 -18 5 -15 10 3 6 10 10 15 10 5 0 12 -4 15 -10z m-502 -167 c-40 -2 -107 -2 -150 0 -43 1 -10 3 72 3 83 0 118 -2 78 -3z"/>
    <text x="748.021" y="436.127" style="white-space: pre; fill: rgb(51, 51, 51); font-family: &quot;Roboto Slab&quot;; font-size: 28px;" transform="matrix(1.037069, 0, 0, -1.437213, -27.728323, 1044.541382)">Web Client</text>
    <text x="748.021" y="436.127" style="white-space: pre; fill: rgb(51, 51, 51); font-family: &quot;Roboto Slab&quot;; font-size: 28px;" transform="matrix(1.03707, 0, 0, -1.43721, 1294.538452, 1088.255981)">Web Server</text>
    <text transform="matrix(1.80179, 0, 0, -3.334026, -1029.250244, 1549.805298)" style="white-space: pre; fill: rgb(51, 51, 51); font-family: &quot;Roboto Slab&quot;; font-size: 28px;" y="350.332" x="1263.207"><tspan x="1263.20703125" dy="1em">​</tspan>Request access to<tspan x="1263.20703125" dy="1em">​</tspan>protected resource<tspan x="1263.20703125" dy="1em">​</tspan><tspan x="1263.20703125" dy="1em">​</tspan></text>
  </g>
</svg>