<?xml version="1.0" encoding="UTF-8" standalone="no"?>
<!DOCTYPE svg PUBLIC "-//W3C//DTD SVG 1.0//EN" "http://www.w3.org/TR/2001/REC-SVG-20010904/DTD/svg10.dtd">
<!-- Generato da Microsoft Visio 11.0, SVG Export, v1.0 Platform_Spec-7.svg Pagina 1 -->
<svg xmlns="http://www.w3.org/2000/svg" xmlns:v="http://schemas.microsoft.com/visio/2003/SVGExtensions/" width="7.42157in"
		height="1.83102in" viewBox="0 0 534.353 131.834" xml:space="preserve" color-interpolation-filters="sRGB" class="st12"
		xmlns:xlink="http://www.w3.org/1999/xlink">
	<v:documentProperties v:langID="1040" v:metric="true" v:viewMarkup="false">
		<v:userDefs>
			<v:ud v:nameU="MBSAAddinOutlineVisible" v:prompt="" v:val="VT0(1):26"/>
		</v:userDefs>
	</v:documentProperties>

	<style type="text/css">
	<![CDATA[
		.st1 {fill:#ffffff;stroke:none;stroke-linecap:round;stroke-linejoin:round;stroke-width:0.72}
		.st2 {fill:#bfbfbf;stroke:#bfbfbf;stroke-linecap:round;stroke-linejoin:round;stroke-width:0.72}
		.st3 {fill:#ffffff;stroke:#000000;stroke-linecap:round;stroke-linejoin:round;stroke-width:0.72}
		.st4 {fill:none;stroke:none;stroke-linecap:round;stroke-linejoin:round;stroke-width:0.72}
		.st5 {fill:#000000;font-family:Arial;font-size:0.666664em}
		.st6 {font-size:1em}
		.st7 {marker-end:url(#mrkr13-41);stroke:#000000;stroke-linecap:round;stroke-linejoin:round;stroke-width:0.72}
		.st8 {fill:#000000;fill-opacity:1;stroke:#000000;stroke-opacity:1;stroke-width:0.22222222222222}
		.st9 {fill:#000000;stroke:#000000;stroke-linecap:round;stroke-linejoin:round;stroke-width:0.72}
		.st10 {fill:#660033;stroke:#660033;stroke-linecap:round;stroke-linejoin:round;stroke-width:0.72}
		.st11 {stroke:#ffffff;stroke-linecap:round;stroke-linejoin:round;stroke-width:2.16}
		.st12 {fill:none;fill-rule:evenodd;font-size:12;overflow:visible;stroke-linecap:square;stroke-miterlimit:3}
	]]>
	</style>

	<defs id="Markers">
		<g id="lend13">
			<path d="M 3 1 L -0 0 L 3 -1 L 3 1 " style="stroke:none"/>
		</g>
		<marker id="mrkr13-41" class="st8" v:arrowType="13" v:arrowSize="2" v:setback="13.5" refX="-13.5" orient="auto"
				markerUnits="strokeWidth">
			<use xlink:href="#lend13" transform="scale(-4.5,-4.5) "/>
		</marker>
	</defs>
	<g v:mID="0" v:index="1" v:groupContext="foregroundPage">
		<title>Pagina 1</title>
		<v:pageProperties v:drawingScale="0.0393701" v:pageScale="0.0393701" v:drawingUnits="24" v:shadowOffsetX="8.50394"
				v:shadowOffsetY="-8.50394"/>
		<g id="shape139-1" v:mID="139" v:groupContext="shape" transform="translate(0.72,-0.72)">
			<title>Foglio.139</title>
			<rect x="0" y="1.44" width="532.913" height="130.394" class="st1"/>
		</g>
		<g id="shape1-3" v:mID="1" v:groupContext="shape" transform="translate(128.279,-12.0586)">
			<title>Foglio.1</title>
			<rect x="0" y="41.125" width="178.583" height="90.7087" class="st2"/>
		</g>
		<g id="shape4-5" v:mID="4" v:groupContext="shape" transform="translate(125.444,-14.8932)">
			<title>Foglio.4</title>
			<rect x="0" y="38.2904" width="178.583" height="93.5433" class="st3"/>
		</g>
		<g id="shape15-7" v:mID="15" v:groupContext="shape" transform="translate(218.988,-43.2397)">
			<title>Foglio.15</title>
			<rect x="0" y="77.9754" width="79.3701" height="53.8583" class="st2"/>
		</g>
		<g id="shape138-9" v:mID="138" v:groupContext="shape" transform="translate(3.55465,-85.7594)">
			<title>Foglio.138</title>
			<desc>Web Client</desc>
			<v:textBlock v:margins="rect(4,4,4,4)" v:tabSpace="42.5197"/>
			<v:textRect cx="28.3465" cy="124.747" width="56.7" height="14.1732"/>
			<rect x="0" y="117.66" width="56.6929" height="14.1732" class="st4"/>
			<text x="8.78" y="127.15" class="st5" v:langID="1040"><v:paragraph v:horizAlign="1"/><v:tabList/>Web Client</text>		</g>
		<g id="shape2-12" v:mID="2" v:groupContext="shape" transform="translate(16.918,-43.2397)">
			<title>Foglio.2</title>
			<rect x="0" y="91.3388" width="40.4949" height="40.4949" class="st2"/>
		</g>
		<g id="shape3-14" v:mID="3" v:groupContext="shape" transform="translate(14.8932,-45.2644)">
			<title>Foglio.3</title>
			<rect x="0" y="91.3388" width="40.4949" height="40.4949" class="st3"/>
		</g>
		<g id="shape5-16" v:mID="5" v:groupContext="shape" transform="translate(122.61,-108.437)">
			<title>Foglio.5</title>
			<desc>Web Server</desc>
			<v:textBlock v:margins="rect(4,4,4,4)" v:tabSpace="42.5197"/>
			<v:textRect cx="80.7874" cy="124.747" width="161.58" height="14.1732"/>
			<rect x="0" y="117.66" width="161.575" height="14.1732" class="st4"/>
			<text x="59.67" y="127.15" class="st5" v:langID="1040"><v:paragraph v:horizAlign="1"/><v:tabList/>Web Server</text>		</g>
		<g id="shape143-19" v:mID="143" v:groupContext="shape" transform="translate(127.469,-42.8347)">
			<title>Foglio.143</title>
			<rect x="0" y="91.3388" width="60.3375" height="40.4949" class="st2"/>
		</g>
		<g id="shape144-21" v:mID="144" v:groupContext="shape" transform="translate(125.444,-45.3282)">
			<title>Foglio.144</title>
			<rect x="0" y="91.3388" width="59.5276" height="40.4949" class="st3"/>
		</g>
		<g id="shape142-23" v:mID="142" v:groupContext="shape" transform="translate(119.775,-58.894)">
			<title>Foglio.142</title>
			<desc>credential</desc>
			<v:textBlock v:margins="rect(4,4,4,4)" v:tabSpace="42.5197"/>
			<v:textRect cx="28.3465" cy="124.747" width="56.7" height="14.1732"/>
			<rect x="0" y="117.66" width="56.6929" height="14.1732" class="st4"/>
			<text x="11" y="127.15" class="st5" v:langID="1040"><v:paragraph v:horizAlign="1"/><v:tabList/>credential</text>		</g>
		<g id="shape10-26" v:mID="10" v:groupContext="shape" transform="translate(122.355,-17.6641)">
			<title>Foglio.10</title>
			<desc>Session Context</desc>
			<v:textBlock v:margins="rect(4,4,4,4)" v:tabSpace="42.5197"/>
			<v:textRect cx="22.8047" cy="120.368" width="45.61" height="22.9323"/>
			<rect x="0" y="108.901" width="45.6094" height="22.9323" class="st4"/>
			<text x="8.57" y="117.97" class="st5" v:langID="1040"><v:paragraph v:horizAlign="1"/><v:tabList/>Session<v:newlineChar/><tspan
						x="9.02" dy="1.2em" class="st6">Context</tspan></text>		</g>
		<g id="shape11-30" v:mID="11" v:groupContext="shape" transform="translate(216.153,-46.0743)">
			<title>Foglio.11</title>
			<rect x="0" y="77.9754" width="79.3701" height="53.8583" class="st3"/>
		</g>
		<g id="shape14-32" v:mID="14" v:groupContext="shape" transform="translate(216.153,-62.8271)">
			<title>Foglio.14</title>
			<desc>JSP/Servlet Object</desc>
			<v:textBlock v:margins="rect(4,4,4,4)" v:tabSpace="42.5197"/>
			<v:textRect cx="28.6016" cy="120.368" width="57.21" height="22.9323"/>
			<rect x="0" y="108.901" width="57.2031" height="22.9323" class="st4"/>
			<text x="7.71" y="117.97" class="st5" v:langID="1040"><v:paragraph v:horizAlign="1"/><v:tabList/>JSP/Servlet<v:newlineChar/><tspan
						x="17.04" dy="1.2em" class="st6">Object</tspan></text>		</g>
		<g id="shape16-36" v:mID="16" v:groupContext="shape" transform="translate(125.444,209.089) rotate(180)">
			<title>Foglio.16</title>
			<path d="M0 131.83 L60.34 131.83" class="st7"/>
		</g>
		<g id="shape17-42" v:mID="17" v:groupContext="shape" transform="translate(-66.8077,74.4208) rotate(-90) scale(-1,1)">
			<title>Foglio.17</title>
			<path d="M5.67 131.83 L0 131.83 L2.83 122.2 L5.67 131.83 Z" class="st9"/>
		</g>
		<g id="shape6-44" v:mID="6" v:groupContext="shape" transform="translate(253.003,-17.4728)">
			<title>Foglio.6</title>
			<desc>Security Context</desc>
			<v:textBlock v:margins="rect(4,4,4,4)" v:tabSpace="42.5197"/>
			<v:textRect cx="22.8047" cy="120.368" width="45.61" height="22.9323"/>
			<rect x="0" y="108.901" width="45.6094" height="22.9323" class="st4"/>
			<text x="8.36" y="117.97" class="st5" v:langID="1040"><v:paragraph v:horizAlign="1"/><v:tabList/>Security<v:newlineChar/><tspan
						x="9.02" dy="1.2em" class="st6">Context</tspan></text>		</g>
		<g id="shape7-48" v:mID="7" v:groupContext="shape" transform="translate(295.523,177.908) scale(1,-1)">
			<title>Foglio.7</title>
			<path d="M0 131.83 L143.35 131.83" class="st7"/>
		</g>
		<g id="shape8-53" v:mID="8" v:groupContext="shape" transform="translate(570.506,43.2397) rotate(90)">
			<title>Foglio.8</title>
			<path d="M5.67 131.83 L0 131.83 L2.83 122.2 L5.67 131.83 Z" class="st9"/>
		</g>
		<g id="shape9-55" v:mID="9" v:groupContext="shape" transform="translate(293.701,-90.0113)">
			<title>Foglio.9</title>
			<desc>Credential used to establish security association</desc>
			<v:textBlock v:margins="rect(4,4,4,4)" v:tabSpace="42.5197"/>
			<v:textRect cx="67.0191" cy="121.912" width="134.04" height="19.8425"/>
			<rect x="0" y="111.991" width="134.038" height="19.8425" class="st4"/>
			<text x="17.66" y="119.51" class="st5" v:langID="1040"><v:paragraph v:horizAlign="1"/><v:tabList/>Credential used to establish <tspan
						x="32.11" dy="1.2em" class="st6">security association</tspan></text>		</g>
		<g id="shape12-59" v:mID="12" v:groupContext="shape" transform="translate(321.035,-54.4602)">
			<title>Foglio.12</title>
			<desc>remote call</desc>
			<v:textBlock v:margins="rect(4,4,4,4)" v:tabSpace="42.5197"/>
			<v:textRect cx="35.4331" cy="123.857" width="70.87" height="15.9543"/>
			<rect x="0" y="115.879" width="70.8661" height="15.9543" class="st4"/>
			<text x="15.87" y="126.26" class="st5" v:langID="1040"><v:paragraph v:horizAlign="1"/><v:tabList/>remote call</text>		</g>
		<g id="shape13-62" v:mID="13" v:groupContext="shape" transform="translate(448.594,209.207) rotate(180)">
			<title>Foglio.13</title>
			<path d="M0 131.83 L143.35 131.83" class="st7"/>
		</g>
		<g id="shape18-67" v:mID="18" v:groupContext="shape" transform="translate(173.327,74.5389) rotate(-90) scale(-1,1)">
			<title>Foglio.18</title>
			<path d="M5.67 131.83 L0 131.83 L2.83 122.2 L5.67 131.83 Z" class="st9"/>
		</g>
		<g id="shape19-69" v:mID="19" v:groupContext="shape" transform="translate(451.429,-12.0586)">
			<title>Foglio.19</title>
			<rect x="0" y="39.0253" width="79.3701" height="92.8084" class="st2"/>
		</g>
		<g id="shape20-71" v:mID="20" v:groupContext="shape" transform="translate(448.594,-15.6281)">
			<title>Foglio.20</title>
			<rect x="0" y="39.0253" width="79.3701" height="92.8084" class="st3"/>
		</g>
		<g id="shape21-73" v:mID="21" v:groupContext="shape" transform="translate(448.594,-14.8932)">
			<title>Foglio.21</title>
			<rect x="0" y="38.2904" width="17.0079" height="93.5433" class="st3"/>
		</g>
		<g id="shape22-75" v:mID="22" v:groupContext="shape" transform="translate(580.428,26.2318) rotate(90)">
			<title>Foglio.22</title>
			<desc>Authentication</desc>
			<v:textBlock v:margins="rect(4,4,4,4)" v:tabSpace="42.5197"/>
			<v:textRect cx="32.5984" cy="124.747" width="65.2" height="14.1732"/>
			<rect x="0" y="117.66" width="65.1969" height="14.1732" class="st4"/>
			<text x="7.25" y="127.15" class="st5" v:langID="1040"><v:paragraph v:horizAlign="1"/><v:tabList/>Authentication</text>		</g>
		<g id="shape23-78" v:mID="23" v:groupContext="shape" transform="translate(474.106,-68.4964)">
			<title>Foglio.23</title>
			<desc>EJB</desc>
			<v:textBlock v:margins="rect(4,4,4,4)" v:tabSpace="42.5197"/>
			<v:textRect cx="15.8457" cy="120.368" width="31.7" height="22.9323"/>
			<rect x="0" y="108.901" width="31.6913" height="22.9323" class="st4"/>
			<text x="8.51" y="122.77" class="st5" v:langID="1040"><v:paragraph v:horizAlign="1"/><v:tabList/>EJB</text>		</g>
		<g id="shape24-81" v:mID="24" v:groupContext="shape" transform="translate(476.813,-17.4728)">
			<title>Foglio.24</title>
			<desc>Security Context</desc>
			<v:textBlock v:margins="rect(4,4,4,4)" v:tabSpace="42.5197"/>
			<v:textRect cx="22.8047" cy="120.368" width="45.61" height="22.9323"/>
			<rect x="0" y="108.901" width="45.6094" height="22.9323" class="st4"/>
			<text x="8.36" y="117.97" class="st5" v:langID="1040"><v:paragraph v:horizAlign="1"/><v:tabList/>Security<v:newlineChar/><tspan
						x="9.02" dy="1.2em" class="st6">Context</tspan></text>		</g>
		<g id="shape25-85" v:mID="25" v:groupContext="shape" transform="translate(437.255,-108.437)">
			<title>Foglio.25</title>
			<desc>EJB Container</desc>
			<v:textBlock v:margins="rect(4,4,4,4)" v:tabSpace="42.5197"/>
			<v:textRect cx="35.3055" cy="124.747" width="70.62" height="14.1732"/>
			<rect x="0" y="117.66" width="70.611" height="14.1732" class="st4"/>
			<text x="9.51" y="127.15" class="st5" v:langID="1040"><v:paragraph v:horizAlign="1"/><v:tabList/>EJB Container</text>		</g>
		<g id="shape26-88" v:mID="26" v:groupContext="shape" transform="translate(420.543,-30.2164) rotate(-30)">
			<title>Foglio.26</title>
			<ellipse cx="12.7542" cy="123.938" rx="12.7542" ry="7.89545" class="st10"/>
		</g>
		<g id="shape27-90" v:mID="27" v:groupContext="shape" transform="translate(418.957,-35.8201) rotate(-29.3825)">
			<title>Foglio.27</title>
			<path d="M0 128.98 C1.36 129.88 2.83 131.09 4.97 131.6 C5.69 131.78 6.49 131.87 7.22 131.82 C8.82 131.72 10.08 130.94
						 11.27 130.2 C12.91 129.19 14.42 128.27 16.59 127.83 C18 127.55 19.7 127.48 21.08 127.66 C22.88 127.91 24.16
						 128.58 25.46 128.98" class="st11"/>
		</g>
	</g>
</svg>
